<?xml version="1.0" encoding="utf-8"?>
<!-- Generator: Adobe Illustrator 19.0.0, SVG Export Plug-In . SVG Version: 6.00 Build 0)  -->
<svg version="1.1" id="Layer_1" xmlns="http://www.w3.org/2000/svg" xmlns:xlink="http://www.w3.org/1999/xlink" x="0px" y="0px"
	 viewBox="0 0 233 233" style="enable-background:new 0 0 233 233;" xml:space="preserve">
<style type="text/css">
	.st0{fill:#A4C639;}
	.st1{fill:#FFFFFF;}
</style>
<circle id="XMLID_5_" class="st0" cx="116.5" cy="116.5" r="116.5"/>
<path id="XMLID_67_" class="st1" d="M116.9,25.7c0.4,0.5,0.7,1,1.1,1.4c24.6,24.6,49.3,49.2,73.9,73.7c0.4,0.4,1,0.8,1.4,1.1
	c-5,4.9-9.7,9.7-14.5,14.5c-2.5-2.5-5-5.1-7.9-8.1c0,20.1,0,39.7,0,59.5c2.1,0,4.3,0,6.5,0c0,6.8,0,13.4,0,20.2
	c-40.5,0-81,0-121.7,0c0-6.6,0-13.3,0-20.2c2.1,0,4.3,0,6.5,0c0-19.6,0-39.1,0-58.6c-2.6,2.6-5.2,5.3-7.8,7.8c-5-5-9.7-9.8-14.9-15
	c25.6-25.4,51.3-50.9,77-76.4C116.7,25.7,116.8,25.7,116.9,25.7z M116.1,55.1c-0.4,0.3-0.5,0.4-0.6,0.5
	C100.3,70.8,85.2,86,70.1,101.2c-0.5,0.5-0.8,1.6-0.8,2.4c0,20.8,0,41.7,0,62.5c0,0.6,0,1.1,0,1.8c12,0,23.7,0,35.7,0
	c-0.5-6.6,0.1-13.1,2.2-19.4c-10.6,1.2-16.1-4.2-19.6-10.8c-2.8-5.4-4-11.3-4.6-17.3c-0.3-3.3-0.3-6.6-0.5-9.9
	c0.5-0.1,0.6-0.2,0.8-0.2c8.6,0.1,17,1.1,24.9,4.8c1,0.5,1.6,0.4,2.4-0.4c1.6-1.6,3.3-3.1,5.1-4.4c8-5.7,17.2-8.4,26.7-10.2
	c2.3-0.4,4.6-0.7,6.9-1.1c1.2,6.2,1.6,17.8,0.8,23.5c-1,7.1-2.7,13.9-6.9,19.9c-4.7,6.7-13.6,10.4-21.6,8.5
	c-2.5-0.6-4.9-1.6-7.4-2.4c-2.4,6.2-3.3,12.6-2.5,19.3c17.5,0,34.8,0,52.2,0c0-0.5,0-0.9,0-1.2c0-21.2,0-42.4,0-63.6
	c0-0.8-0.5-1.8-1.1-2.4c-13-13.1-26.1-26.1-39.2-39.1C121.3,59.2,118.6,57.2,116.1,55.1z M54.2,107.2C75,86.6,95.8,65.9,116.9,45
	c20.5,20.7,41.1,41.5,61.6,62.3c1.9-1.9,3.5-3.4,4.7-4.6c-22.2-22.3-44.4-44.7-66.3-66.8c-22.5,22.4-45,44.7-67.3,66.8
	C51.2,104.2,52.7,105.7,54.2,107.2z M170.7,174.8c-36.1,0-72.1,0-108.2,0c0,2.2,0,4.4,0,6.6c36.1,0,72.1,0,108.2,0
	C170.7,179.1,170.7,177,170.7,174.8z M143.6,106.2c-5.4,1.7-10.6,3.1-15.6,5c-5.2,1.9-9.9,4.8-13.5,9.2c-3.7,4.5-4.5,11.2-1.8,16
	c0.1,0,0.2-0.1,0.3-0.1c0.3-0.5,0.7-0.9,1-1.4c4-5.8,8.7-10.9,14.3-15.1c1.8-1.4,3.8-1.2,5.1,0.3c1.3,1.6,0.9,3.5-0.9,5
	c-2.6,2.3-5.2,4.5-7.6,7c-2.9,3-5.4,6.3-7.4,10c3.5,2.4,7.2,3,11.1,2.3c6-1.1,9.5-5.1,11.8-10.5C144,125.1,144.2,116,143.6,106.2z
	 M106.2,141.4c-1.8-2.2-3.7-4.4-5.5-6.6c-1-1.3-2.2-2.5-3.1-3.8c-1-1.4-0.7-3.2,0.6-4.3c1.2-1.1,3-1.1,4.3,0c0.6,0.5,1,1,1.6,1.5
	c0.5-2.3,1-4.5,1.6-6.7c-3.1-2-12.5-4.3-16.3-3.9c0.4,2.6,0.7,5.3,1.2,7.9c0.9,4.6,2.3,9.1,5.5,12.8
	C98.7,141.3,102.9,142.6,106.2,141.4z"/>
</svg>
