<?xml version="1.0" encoding="utf-8"?>
<!-- Generator: Adobe Illustrator 19.0.0, SVG Export Plug-In . SVG Version: 6.00 Build 0)  -->
<svg version="1.1" id="Layer_1" xmlns="http://www.w3.org/2000/svg" xmlns:xlink="http://www.w3.org/1999/xlink" x="0px" y="0px"
	 viewBox="0 0 233 233" style="enable-background:new 0 0 233 233;" xml:space="preserve">
<style type="text/css">
	.st0{clip-path:url(#XMLID_64_);fill:#A4C639;}
	.st1{clip-path:url(#XMLID_64_);fill:none;stroke:#F1F2F2;stroke-width:5;stroke-miterlimit:10;}
	.st2{clip-path:url(#XMLID_64_);}
	.st3{fill:none;stroke:#F1F2F2;stroke-width:4;stroke-miterlimit:10;}
	.st4{clip-path:url(#XMLID_64_);fill:none;}
</style>
<g id="XMLID_5_">
	<defs>
		<circle id="XMLID_11_" cx="116.5" cy="116.5" r="116.5"/>
	</defs>
	<clipPath id="XMLID_64_">
		<use xlink:href="#XMLID_11_"  style="overflow:visible;"/>
	</clipPath>
	<circle id="XMLID_62_" class="st0" cx="116.5" cy="116.5" r="116.5"/>
	<path id="XMLID_61_" class="st1" d="M8.9,158.2l44.6,35.3l46.6,5.1l33.8,16.9l8.2-22l-8.7-0.5l12.8-32.3h-7.2l16.9-45.6l16.9,45.6
		l-6.1,1l10.8,29.7l6.7-15.4l-9.2-2l14.3-30.7l-9.7-2l12.8-32.8h-8.7l17.9-46.1l17.9,46.6h-8.7l12.8,32.8h-9.2l9.2,19.5l2.6,9.2
		c0,0-8.7,32.3-53.3,54.8c0,0-56.3,28.7-109.1,0c0,0-38.4-14.9-59.9-66.6L8.9,158.2z"/>
	<g id="XMLID_9_" class="st2">
		<circle id="XMLID_27_" class="st3" cx="97.6" cy="56.4" r="14.8"/>
		<path id="XMLID_6_" class="st3" d="M99.9,152.5l-17.2-30.4l9.1-20.1c5.6,15,8.6,12.8,8.6,12.8l20.9-14.2l-15,101.2
			c2.5,0.7,5,1.4,7.5,2.1l16.4-115.6c-3.4-5.9-8.1,0.2-8.1,0.2v6.9l-4.9,1.2l-6.9,2.7c-4.9,2.7-6.6,0.2-6.6,0.2l-3.2-10.8l-7.6-14.2
			c-8.3-10.1-17.7,4.2-17.7,4.2l-18.4,41.2c-1.5,3.3,1.2,18.7,1.2,18.7l3.7,15.7C43.7,164.3,38.6,179,38.6,179v1.7
			c0.8,0.9,1.6,1.8,2.4,2.7l33.1-23.1l1.2-14l10.8,10.3l-2,28.2c0.1,3.8,1.6,7.3,3.3,10.1c1-0.5,2.2-0.6,3.2-0.1
			c1.3,0.5,2.4,1.2,3.6,1.8l6.6-40.5C101.1,152.7,99.9,152.5,99.9,152.5z"/>
		<path id="XMLID_8_" class="st3" d="M53,118.9l22.3-49.6c0,0-13.5-10.6-28.5,5.2c0,0-9.6,10.3-11.8,19.6
			C35.1,94.1,31.9,117.2,53,118.9z"/>
	</g>
	<circle id="XMLID_10_" class="st4" cx="115.7" cy="116.5" r="116.5"/>
	<circle id="XMLID_7_" class="st4" cx="116.5" cy="116.5" r="116.5"/>
</g>
</svg>
