<?xml version="1.0" encoding="utf-8"?>
<!-- Generator: Adobe Illustrator 19.0.0, SVG Export Plug-In . SVG Version: 6.00 Build 0)  -->
<svg version="1.1" id="Layer_1" xmlns="http://www.w3.org/2000/svg" xmlns:xlink="http://www.w3.org/1999/xlink" x="0px" y="0px"
	 viewBox="0 0 233 233" style="enable-background:new 0 0 233 233;" xml:space="preserve">
<style type="text/css">
	.st0{fill:#A4C639;}
	.st1{fill:#FFFFFF;}
</style>
<circle id="XMLID_6_" class="st0" cx="116.5" cy="116.5" r="116.5"/>
<g id="XMLID_5_">
	<path id="XMLID_231_" class="st1" d="M42.3,61.6c0.8-0.7,1.5-1.7,2.4-2.2c9.2-5.2,18.4-10.3,27.5-15.5c1.5-0.9,2.8-0.9,4.4,0
		c37.3,21,74.5,41.9,111.8,62.8c1.7,1,2.3,2.2,2.3,4.3c0,23.3,0,46.5,0,69.8c0,2.1-0.7,3.3-2.3,4.2c-9.3,5.1-18.5,10.3-27.7,15.5
		c-1.5,0.9-2.8,0.8-4.4,0c-37.2-20.9-74.4-41.8-111.6-62.7c-0.9-0.5-1.6-1.5-2.4-2.2C42.3,110.9,42.3,86.3,42.3,61.6z M50.4,62.4
		c0.5,0.3,0.9,0.6,1.2,0.8c35.3,19.8,70.6,39.6,105.9,59.5c0.8,0.4,1.4,0.4,2.1,0c7.3-4.1,14.6-8.2,21.9-12.3
		c0.3-0.2,0.7-0.4,1.1-0.7c-0.4-0.2-0.7-0.4-0.9-0.6c-35.4-19.9-70.8-39.8-106.3-59.6c-0.5-0.3-1.4-0.2-1.9,0.1
		c-6.4,3.5-12.8,7.1-19.2,10.7C53,60.9,51.7,61.6,50.4,62.4z M47.2,67c0,0.6,0,1,0,1.3c0,21.1,0,42.2,0,63.3c0,1.3,0.5,1.7,1.4,2.1
		c35.3,19.8,70.6,39.6,105.9,59.4c0.5,0.3,0.9,0.5,1.7,0.9c0-0.9,0-1.5,0-2.1c0-20.7,0-41.3,0-62c0-1.4-0.4-2.1-1.5-2.7
		C119.4,107.5,84.2,87.7,49,67.9C48.5,67.6,48,67.4,47.2,67z M161,194c0.7-0.4,1.2-0.6,1.7-0.9c7.2-4.1,14.5-8.2,21.8-12.2
		c1.1-0.6,1.3-1.3,1.3-2.5c0-20.8,0-41.6,0-62.3c0-0.6,0-1.1-0.1-1.9c-0.6,0.3-1.1,0.5-1.6,0.8c-7.2,4-14.4,8.1-21.6,12.1
		c-1.1,0.6-1.5,1.3-1.5,2.7c0,20.7,0,41.3,0,62C161,192.5,161,193.1,161,194z"/>
	<path id="XMLID_219_" class="st1" d="M102.9,117.9c0-3.8,0-7.6,0-11.4c0-2.3,0.7-2.9,2.6-1.9c15.2,8.5,30.3,17.1,45.5,25.6
		c1.1,0.6,1.4,1.4,1.4,2.7c0,7.6,0,15.3,0,22.9c0,2.3-0.7,2.9-2.6,1.8c-15.2-8.5-30.4-17-45.5-25.5c-1.1-0.6-1.4-1.4-1.4-2.7
		C102.9,125.6,102.9,121.8,102.9,117.9z M149.7,154.6c0.1-0.4,0.1-0.6,0.1-0.8c0-6.7,0-13.3,0-20c0-1-0.5-1.3-1.1-1.6
		c-7.1-4-14.2-8-21.3-12c-0.8-0.4-1.4-0.4-2.1,0c-4.4,2.5-8.8,5-13.2,7.4c-1.7,0.9-3.3,1.9-5.2,2.9
		C121.3,138.6,135.4,146.5,149.7,154.6z M123.6,118c-6.2-3.5-12.1-6.8-18.1-10.2c0,6.9,0,13.5,0,20.3
		C111.5,124.8,117.4,121.5,123.6,118z"/>
	<path id="XMLID_215_" class="st1" d="M100.4,144.5c0,3.4,0,6.7,0,10.1c0,2.3-0.7,2.8-2.5,1.8c-15.2-8.5-30.4-17.1-45.6-25.6
		c-1-0.5-1.4-1.2-1.4-2.5c0-6.8,0-13.7,0-20.5c0-2.2,0.7-2.7,2.5-1.7c15.1,8.5,30.3,17,45.4,25.5c1.1,0.6,1.5,1.4,1.5,2.8
		C100.4,137.7,100.4,141.1,100.4,144.5z M54.9,129.1c14.4,8.1,28.6,16.1,43,24.1c0-6.1,0-11.8,0-17.6c0-1.1-0.3-1.7-1.2-2.2
		c-7.3-4-14.6-8-21.8-12.3c-2.2-1.3-3.8-1.3-5.9,0C64.5,123.9,59.8,126.4,54.9,129.1z M53.5,109.2c0,6,0,11.7,0,17.6
		c5.2-3,10.3-5.8,15.7-8.8C63.8,115,58.7,112.1,53.5,109.2z"/>
	<path id="XMLID_212_" class="st1" d="M100.4,115.3c0,3.8,0,7.7,0,11.5c0,2.2-0.8,2.7-2.5,1.7c-15.2-8.5-30.3-17-45.5-25.5
		c-1-0.6-1.4-1.2-1.4-2.5c0-7.8,0-15.5,0-23.3c0-2.3,0.7-2.7,2.5-1.7C68.6,84,83.8,92.6,99,101c1.1,0.6,1.4,1.4,1.4,2.7
		C100.4,107.6,100.4,111.4,100.4,115.3z M97.9,125.4c0-0.5,0.1-0.8,0.1-1.1c0-6.5,0-13,0-19.5c0-1-0.4-1.4-1.1-1.8
		c-14-7.8-28-15.7-42-23.6c-0.4-0.2-0.8-0.4-1.5-0.7c0,0.8,0,1.3,0,1.9c0,6.1,0,12.1,0,18.2c0,1.3,0.3,1.9,1.3,2.5
		c13.9,7.7,27.8,15.5,41.7,23.3C96.8,124.9,97.3,125.1,97.9,125.4z"/>
	<path id="XMLID_209_" class="st1" d="M102.9,147.1c0-3.4,0-6.7,0-10.1c0-2.2,0.7-2.8,2.5-1.8c15.2,8.5,30.3,17.1,45.5,25.5
		c1.1,0.6,1.5,1.3,1.5,2.7c0,6.7,0,13.4,0,20.2c0,2.5-0.7,2.9-2.6,1.9c-12.2-6.8-24.3-13.7-36.5-20.5c-3-1.7-6-3.4-9.1-5.1
		c-0.9-0.5-1.3-1.2-1.3-2.4C102.9,154,102.9,150.5,102.9,147.1z M149.8,182.3c0-0.6,0.1-1.1,0.1-1.6c0-5.3,0-10.6,0-15.9
		c0-1.2-0.4-1.7-1.2-2.2c-13.9-7.8-27.9-15.6-41.8-23.4c-0.4-0.2-0.9-0.4-1.5-0.7c0,0.7,0,1.2,0,1.8c0,5.2,0,10.4,0,15.6
		c0,1.3,0.4,1.9,1.4,2.4c13.9,7.8,27.8,15.6,41.7,23.4C148.8,181.8,149.2,182,149.8,182.3z"/>
	<path id="XMLID_198_" class="st1" d="M83.1,101c0,1.3-0.9,2-1.7,1.6c-3.3-1.8-6.7-3.7-9.9-5.6c-0.3-0.2-0.3-1.2-0.5-1.8
		c0.6-0.2,1.3-0.6,1.8-0.4c1.9,0.9,3.7,2,5.6,3.1c1.2,0.7,2.5,1.4,3.7,2.1C82.5,100.2,82.8,100.7,83.1,101z"/>
	<path id="XMLID_197_" class="st1" d="M121.2,152.6c0.5,0.2,0.9,0.4,1.3,0.5c2.9,1.6,5.9,3.3,8.8,4.9c0.8,0.5,1.6,1.1,1,2.2
		c-0.5,1.1-1.4,0.7-2.2,0.3c-3-1.7-6-3.3-8.9-5.1c-0.5-0.3-0.8-1.1-0.9-1.7C120.3,153.5,120.9,153,121.2,152.6z"/>
</g>
</svg>
