<?xml version="1.0" encoding="utf-8"?>
<!-- Generator: Adobe Illustrator 19.0.0, SVG Export Plug-In . SVG Version: 6.00 Build 0)  -->
<svg version="1.1" id="Layer_1" xmlns="http://www.w3.org/2000/svg" xmlns:xlink="http://www.w3.org/1999/xlink" x="0px" y="0px"
	 viewBox="0 0 233 233" style="enable-background:new 0 0 233 233;" xml:space="preserve">
<style type="text/css">
	.st0{clip-path:url(#XMLID_10_);fill:#A4C639;}
	.st1{clip-path:url(#XMLID_10_);}
	.st2{fill:#FFFFFF;}
</style>
<g id="XMLID_5_">
	<defs>
		<circle id="XMLID_6_" cx="116.5" cy="116.5" r="116.5"/>
	</defs>
	<clipPath id="XMLID_10_">
		<use xlink:href="#XMLID_6_"  style="overflow:visible;"/>
	</clipPath>
	<circle id="XMLID_8_" class="st0" cx="117.5" cy="116.5" r="116.5"/>
	<g id="XMLID_7_" class="st1">
		<path id="XMLID_177_" class="st2" d="M115.3,38.3c3.1,0.9,6.1,1.8,8.6,4c4,3.5,5.8,7.9,5.9,13.1c0,3.1,0,6.3,0,9.2
			c3.3,1.3,6.6,2.1,9.5,3.7c9.2,5.2,13.7,13.3,13.8,23.8c0.1,11.2,0,22.4,0,33.6c0,0.7,0,1.4,0,2.3c1,0,1.8,0,2.6,0
			c17.6,0,35.1,0.1,52.7,0c8.1-0.1,14.1,3.1,18.4,9.8c1.7,2.7,3.6,5.4,5.5,8.3c-1.8,1.2-3.5,2.4-5.5,3.7c-2-3-4-6.1-6-9
			c-1.9-2.7-4.2-4.9-7.5-5.6c-1.6-0.3-3.3-0.5-5-0.5c-20.2,0-40.4,0.1-60.6-0.1c-5.6,0-9.7,2.1-12.9,6.7c-4.1,6-8.6,11.6-12.5,17.7
			c-5.1,8-12.1,12.5-21.7,13.3c-4.3,0.3-8.6,1.3-12.9,2.1c-5.5,1-9.4,4.7-10.5,10c5.3,0,10.5,0,15.9,0c0,6.8,0,13.3,0,20
			c-5.4,0-10.8,0-16.2,0c0,2.9-0.4,5.7,0.1,8.4c0.5,2.9,2.8,4.6,5.7,4.8c3.5,0.2,7.1,0.1,10.8,0.1c1.3-6.7,4.5-12.2,10.2-16
			c3.8-2.6,8.1-3.9,12.7-3.9c5.8,0,10.9,1.9,15.3,5.7c4.3,3.7,6.8,8.5,7.8,14.1c22.4,0,44.7,0,67.1,0c1.3-7.1,4.9-12.7,11.1-16.5
			c4.3-2.7,10.4-3.9,15.1-3.2c0,2,0,4.1,0,6.5c-6.8-0.5-12.8,1.4-16.9,7.3c-2,2.9-3,6.3-2.8,9.9c0.2,5,2.3,9.1,6.2,12.4
			c3.9,3.3,8.6,3.8,13.5,3.7c0,2.3,0,4.4,0,6.6c-22,0-44,0-66.1,0c0-2.1,0-4.2,0-6.5c15.4,0,30.7,0,46,0c-1.6-2.9-3.2-5.7-4.7-8.4
			c-0.4-0.8-0.7-1.6-0.8-2.5c-0.2-1.8-0.9-2.5-3-2.5c-20.8,0.1-41.6,0.1-62.4,0c-1.7,0-2.4,0.4-2.8,2.2c-0.8,4.2-2.9,7.7-6.1,11
			c1.3,0.1,2.3,0.2,3.4,0.3c0,2.1,0,4.2,0,6.4c-27.6,0-55.1,0-82.8,0c0-2.1,0-4.2,0-6.6c15.4,0,30.8,0,46.7,0
			c-3.8-4-5.9-8.3-6.7-13.3c-3.1,0-6.1-0.1-9,0c-8.3,0.3-14.7-5.8-14.6-14.4c0-0.7,0-1.3,0-2.3c-14.5,0-28.8,0-43.2,0
			c0-11,0-22,0-33c5.5,0,10.9,0,16.6,0c0-1.3,0-2.1,0-3c0-38.4,0-76.8,0-115.1c0-4.9,1.1-9.3,4.5-12.9c2.8-3,6.4-4.5,10.3-5.4
			C77.2,38.3,96.3,38.3,115.3,38.3z M50.1,174.4c0.5,0.1,0.7,0.2,0.9,0.2c7.6,0,15.1,0,22.7,0c0.7,0,1.5-0.5,2-1
			c2.7-2.7,5.8-4.6,9.5-5.3c6.1-1.2,12.2-2.3,18.4-3.2c3.8-0.6,7.1-2,9.5-5.1c3.1-4,6-8,8.9-12.2c0.7-1,1.1-2.3,1.1-3.5
			c0.1-29.4,0.1-58.7,0-88.1c0-7.4-3.9-11.3-11.3-11.3c-16.8,0-33.7,0-50.5,0c-1.3,0-2.7,0.1-4,0.4c-4.7,1.2-7.3,5.1-7.3,10.5
			c0,38.9,0,77.8,0,116.6C50.1,173.1,50.1,173.7,50.1,174.4z M33.6,201.1c12.1,0,24.2,0,36.2,0c0.2-6.7,0.4-13.2,0.6-19.7
			c-12,0-24.4,0-36.8,0C33.6,188,33.6,194.5,33.6,201.1z M146.3,111c-0.5,0.1-0.9,0.1-1.3,0.2c-6.1,0.9-11.1-2.7-11.7-8.9
			c-0.3-2.7-0.3-5.5,0-8.2c0.4-4.6,3.3-7.9,7.5-8.9c1.4-0.3,2.9-0.2,4.3-0.3c-1.7-6.4-8.9-12.4-15.1-12.7c0,21.4,0,42.8,0,64.6
			c4.2-5.7,9.5-8.7,16.3-8.7C146.3,122.3,146.3,116.7,146.3,111z M116.5,237.6c9.2,0,16.6-7.5,16.5-16.7
			c-0.1-9.1-7.6-16.5-16.6-16.4c-9.2,0-16.6,7.6-16.5,16.7C100.1,230.3,107.5,237.7,116.5,237.6z M146.3,98.1
			C146.3,98.1,146.3,98.1,146.3,98.1c0-1.1,0.1-2.3,0-3.4c-0.1-1.9-1.5-3.2-3.2-3.2c-1.7,0-3.2,1.3-3.3,3.1c-0.1,2.3-0.1,4.7,0,7
			c0.1,1.9,1.5,3.1,3.3,3.1c1.7,0,3-1.2,3.1-3C146.4,100.5,146.3,99.3,146.3,98.1z M86.5,197.7c0-2.2,0-4.2,0-6.3
			c-3.3,0-6.5,0-9.7,0c0,2.2,0,4.2,0,6.3C80.1,197.7,83.2,197.7,86.5,197.7z"/>
		<path id="XMLID_175_" class="st2" d="M26.8,237.5c2.1,0.1,4.2,0.2,6.5,0.3c0,2.1,0,4.2,0,6.5c-2.2,0-4.3,0-6.5,0
			C26.8,242.1,26.8,239.8,26.8,237.5z"/>
		<path id="XMLID_172_" class="st2" d="M176.3,141.3c0,0.7,0.1,1.1,0.1,1.4c0,10,0,20,0,30c0,1.4-0.3,1.9-1.8,1.9
			c-15.6,0-31.1,0-46.7,0c-0.4,0-0.8-0.1-1.3-0.1c-0.2-4.1-0.5-7.8,2.4-11.4c5.2-6.5,9.8-13.4,14.6-20.2c0.8-1.1,1.5-1.6,2.9-1.6
			c9.3,0.1,18.5,0,27.8,0C174.9,141.3,175.4,141.3,176.3,141.3z M169.5,167.9c0-6.7,0-13.2,0-19.9c-6.9,0-13.7,0-20.4,0.1
			c-0.6,0-1.4,0.7-1.8,1.2c-4.2,5.7-8.3,11.5-12.4,17.3c-0.2,0.3-0.4,0.8-0.7,1.3C146,167.9,157.7,167.9,169.5,167.9z"/>
		<path id="XMLID_169_" class="st2" d="M179.8,141.3c8.8,0,17.5,0.2,26.2-0.1c3.8-0.1,6.2,0.9,8.3,4.2c4.1,6.4,8.7,12.5,13.3,18.7
			c1.4,1.9,2.2,3.9,2,6.3c-0.1,1.3,0,2.6,0,4.1c-16.7,0-33.1,0-49.7,0C179.8,163.5,179.8,152.5,179.8,141.3z M222,167.8
			c-4.7-6.6-9.1-12.8-13.7-19c-0.3-0.4-1.1-0.8-1.7-0.8c-6.3-0.1-12.6,0-18.9-0.1c-1.3,0-1.5,0.6-1.5,1.7c0,3.3,0,6.6,0,9.9
			c0,2.7,0,5.5,0,8.3C198.2,167.8,209.9,167.8,222,167.8z"/>
		<path id="XMLID_168_" class="st2" d="M232.7,211.3c0,2,0,4.1,0,6.5c-1,0-2.1-0.1-3.1,0c-2.1,0.1-3.4,1.4-3.4,3.3
			c0,1.8,1.3,3.1,3.3,3.3c1,0.1,2,0,3.1,0c0,2.3,0,4.4,0,6.6c-4.6,0.5-8.7-0.3-11.5-4.4c-2.2-3.3-2.2-7.7,0.1-11
			C223.6,212,227.8,210.5,232.7,211.3z"/>
		<path id="XMLID_167_" class="st2" d="M166.5,187.9c0-2.3,0-4.4,0-6.6c3.2,0,6.4,0,9.9,0c0,1.9,0.1,3.8-0.1,5.7
			c0,0.3-0.8,0.8-1.2,0.9C172.3,187.9,169.5,187.9,166.5,187.9z"/>
		<path id="XMLID_166_" class="st2" d="M39.8,237.8c2.2,0,4.2,0,6.4,0c0,2.2,0,4.3,0,6.5c-2.1,0-4.2,0-6.4,0
			C39.8,242.2,39.8,240.1,39.8,237.8z"/>
		<path id="XMLID_165_" class="st2" d="M153.2,237.8c2.2,0,4.2,0,6.4,0c0,2.2,0,4.2,0,6.4c-2.1,0-4.2,0-6.4,0
			C153.2,242.1,153.2,240.1,153.2,237.8z"/>
		<path id="XMLID_147_" class="st2" d="M116.4,91.4c-19.9,0-39.6,0-59.5,0c0-13.2,0-26.4,0-39.7c19.8,0,39.6,0,59.5,0
			C116.4,64.9,116.4,78,116.4,91.4z M109.7,58.4c-15.5,0-30.8,0-46.2,0c0,8.8,0,17.5,0,26.3c15.5,0,30.8,0,46.2,0
			C109.7,75.9,109.7,67.2,109.7,58.4z"/>
		<path id="XMLID_146_" class="st2" d="M116.4,98.3c0,2.2,0,4.2,0,6.3c-19.9,0-39.7,0-59.7,0c0-2.1,0-4.1,0-6.3
			C76.7,98.3,96.5,98.3,116.4,98.3z"/>
		<path id="XMLID_145_" class="st2" d="M56.8,111.6c4.4,0,8.6,0,13,0c0,2.1,0,4.2,0,6.3c-4.3,0-8.6,0-13,0
			C56.8,115.9,56.8,113.8,56.8,111.6z"/>
		<path id="XMLID_144_" class="st2" d="M116.4,111.6c0,2.1,0,4.1,0,6.2c-4.3,0-8.6,0-13.1,0c0-2,0-4,0-6.2
			C107.6,111.6,111.9,111.6,116.4,111.6z"/>
		<path id="XMLID_141_" class="st2" d="M116.5,231c-5.4,0-10-4.6-10-10c0.1-5.4,4.7-10,10.1-9.9c5.4,0.1,9.8,4.6,9.9,9.9
			C126.5,226.4,121.9,231.1,116.5,231z M119.8,221.1c0-1.8-1.5-3.3-3.3-3.3c-1.8,0-3.2,1.5-3.2,3.4c0,1.8,1.4,3.1,3.2,3.1
			C118.3,224.3,119.8,222.9,119.8,221.1z"/>
	</g>
</g>
</svg>
