<?xml version="1.0" encoding="utf-8"?>
<!-- Generator: Adobe Illustrator 19.0.0, SVG Export Plug-In . SVG Version: 6.00 Build 0)  -->
<svg version="1.1" id="Layer_1" xmlns="http://www.w3.org/2000/svg" xmlns:xlink="http://www.w3.org/1999/xlink" x="0px" y="0px"
	 viewBox="0 0 233 233" style="enable-background:new 0 0 233 233;" xml:space="preserve">
<style type="text/css">
	.st0{fill:#A4C639;}
	.st1{fill:#FFFFFF;}
</style>
<circle id="XMLID_66_" class="st0" cx="116.5" cy="116.5" r="116.5"/>
<g id="XMLID_74_">
	<path id="XMLID_252_" class="st1" d="M138,39.2c1,0.6,2,1,2.9,1.8c1.7,1.4,2.4,3.5,2.4,5.8c0,5.4,0.1,10.8,0,16.3
		c-0.1,4.7-2.8,7.5-7.1,7.6c-0.6,0-1.1,0-1.8,0c0,0.9,0,1.7,0,2.7c2.1,0,4.3,0,6.4,0c7.7,0.2,13.7,3.8,17.7,11
		c1.9,3.4,2.7,7.1,2.7,11c0,25.8,0.1,51.7,0,77.5c0,12.5-8.9,22-20.4,22c-17.7,0-35.4,0-53.2,0c-11.2,0-19.9-9-20.3-21.1
		c-0.2-4.1,0-8.3,0-12.5c0-1.2,0.4-2.2,1.6-2.6c1-0.3,1.8,0.1,2.3,1c0.2,0.5,0.3,1.1,0.3,1.6c0,1.5,0,2.9,0,4.5c28.5,0,57,0,85.5,0
		c0-21.1,0-42.2,0-63.5c-0.5,0-0.9-0.1-1.4-0.1c-4.4,0-8.8,0-13.2,0c-0.5,0-1,0-1.5-0.1c-1.1-0.2-1.6-0.9-1.7-2.1
		c0-1.2,0.5-2,1.5-2.2c0.5-0.1,1.1-0.2,1.7-0.2c4.3,0,8.7,0,13,0c0.5,0,1,0,1.5,0c1-7.2-2.3-13.7-7.2-17.1c-2.7-1.9-5.7-2.7-8.9-2.7
		c-2.7,0-5.4,0-8.1,0c-1.8,0-2.5-0.8-2.6-2.8c0-1.4,0-2.7-0.1-4.1c0-0.1-0.1-0.2-0.2-0.3c-10.4,0-20.8,0-31.5,0c0,1.4,0,2.8,0,4.2
		c0,2.4-0.7,3.1-2.8,3.1c-2.5,0-5,0-7.6,0c-9.7,0-16.5,7.5-16.5,18.1c0,0.5,0,1,0,1.7c0.7,0,1.3,0,1.9,0c19.1,0,38.2,0,57.4,0
		c0.6,0,1.2,0,1.8,0.1c1.2,0.2,1.8,1.1,1.7,2.3c-0.1,1.2-0.7,2-1.9,2.1c-0.6,0.1-1.1,0.1-1.7,0.1c-19.1,0-38.2,0-57.4,0
		c-0.6,0-1.1,0-1.9,0c0,0.7,0,1.3,0,1.9c0,15.1,0,30.2,0,45.3c0,0.5,0,0.9,0,1.4c0,1.6-0.8,2.6-2,2.6c-1.2,0.1-2.1-1-2.2-2.6
		c0-0.2,0-0.4,0-0.6c0-18.2,0-36.5,0-54.7c0-9.8,5.3-18,13.7-20.9c2.3-0.8,4.7-1,7.1-1.2c2-0.2,4,0,6,0c0-1,0-1.8,0-2.7
		c-0.7,0-1.3,0-2,0c-4-0.1-6.8-2.7-6.9-7.1c-0.2-5.7-0.1-11.3,0-17c0-3.8,2.1-6,5.2-7.2C106.3,39.2,122.2,39.2,138,39.2z
		 M156.9,170.6c-28.5,0-56.9,0-85.6,0c0.2,2.2,0.2,4.2,0.6,6.2c1.7,8.2,8,13.5,15.8,13.5c17.7,0,35.4,0,53,0c1.1,0,2.1-0.1,3.2-0.3
		C152.1,188.5,158.2,179.3,156.9,170.6z M114.2,66c7.2,0,14.4,0,21.7,0c2.4,0,3.2-0.9,3.2-3.5c0-5.1,0-10.2,0-15.3
		c0-2.5-0.9-3.4-3.1-3.4c-14.4,0-28.9,0-43.3,0c-2.3,0-3.2,0.9-3.2,3.5c0,5.1,0,10.1,0,15.2c0,2.7,0.8,3.5,3.3,3.5
		C99.8,66,107,66,114.2,66z"/>
	<path id="XMLID_249_" class="st1" d="M107.6,126.9c0-3,0-5.7,0-8.5c0-3.1,0.5-3.7,3.4-3.7c2.2,0,4.5,0,6.7,0c2.4,0,3,0.7,3,3.4
		c0,2.9,0,5.8,0,8.8c1.4,0,2.7,0,4,0c1.6,0,3.2,0,4.8,0c1.6,0.1,2.4,0.8,2.4,2.5c0.1,3.1,0.1,6.2,0,9.3c0,1.7-0.8,2.5-2.5,2.6
		c-2.3,0.1-4.7,0-7,0c-0.5,0-1,0-1.7,0c0,2.9,0,5.7,0,8.5c0,3.1-0.6,3.7-3.4,3.7c-2.3,0-4.6,0-6.9,0c-2.1,0-2.9-0.8-2.9-3.1
		c0-3,0-5.9,0-9.1c-2.7,0-5.3,0-7.8,0c-2.9,0-3.4-0.6-3.4-3.7c0-2.5,0-5,0-7.4c0-2.4,0.7-3.1,2.8-3.1c2.2,0,4.5,0,6.7,0
		C106.4,126.9,106.9,126.9,107.6,126.9z M116.6,148.8c0-3,0-5.9,0-8.8c0-2.7,0.6-3.3,3-3.3c2.4,0,4.8,0,7.1,0c0.4,0,1-0.5,1-0.8
		c0.1-1.4,0-2.8,0-4.4c-1.8,0-3.4,0-5,0c-6.7,0.1-6.2,0.2-6.2-6.6c0-1.8,0-3.6,0-5.5c-1.7,0-3.1,0-4.8,0c0,0.6,0,1.2,0,1.7
		c0,2.5,0,5.1,0,7.6c0,2-0.7,2.7-2.6,2.8c-0.7,0-1.3,0-2,0c-2.2,0-4.4,0-6.6,0c0,1.8,0,3.5,0,5.2c3,0,5.8,0,8.7,0
		c1.7,0,2.4,0.8,2.4,2.6c0.1,2.4,0,4.9,0,7.3c0,0.7,0,1.5,0,2.2C113.5,148.8,115,148.8,116.6,148.8z"/>
	<path id="XMLID_239_" class="st1" d="M116.3,54.8c0,1.9,0,3.8,0,5.8c0,1.7-0.9,2.6-2.1,2.6c-1.2,0-2-0.9-2-2.5c0-3.8,0-7.7,0-11.5
		c0-1.6,0.9-2.7,2.1-2.6c1.2,0,2,1,2,2.7C116.3,51.1,116.3,53,116.3,54.8z"/>
	<path id="XMLID_238_" class="st1" d="M98.3,54.9c0,1.9,0,3.8,0,5.8c0,1.6-0.8,2.5-2.1,2.5c-1.2,0-2.1-0.9-2.1-2.3
		c-0.1-4-0.1-8,0-12c0-1.4,1-2.4,2.1-2.4c1.2,0,2,1,2.1,2.5C98.4,51,98.3,53,98.3,54.9z"/>
	<path id="XMLID_237_" class="st1" d="M107.3,54.8c0,1.9,0,3.8,0,5.8c0,1.6-0.8,2.5-2,2.6c-1.3,0.1-2.2-0.9-2.2-2.6
		c0-3.8,0-7.7,0-11.5c0-1.6,0.9-2.6,2.1-2.6c1.2,0,2,1,2,2.7C107.4,51.1,107.3,53,107.3,54.8z"/>
	<path id="XMLID_236_" class="st1" d="M121.1,54.8c0-1.9,0-3.8,0-5.8c0-1.6,0.9-2.5,2-2.6c1.2,0,2.1,0.9,2.1,2.5
		c0.1,3.9,0.1,7.9,0,11.8c0,1.5-1,2.5-2.2,2.4c-1.2-0.1-1.9-1-2-2.5C121.1,58.8,121.1,56.8,121.1,54.8z"/>
	<path id="XMLID_230_" class="st1" d="M130.1,54.8c0-1.9,0-3.8,0-5.8c0-1.6,0.8-2.5,2-2.6c1.2,0,2.1,1,2.1,2.5
		c0.1,3.9,0.1,7.9,0,11.8c0,1.5-1,2.4-2.2,2.4c-1.2-0.1-1.9-1-2-2.5C130.1,58.8,130.1,56.8,130.1,54.8z"/>
</g>
</svg>
