<?xml version="1.0" encoding="utf-8"?>
<!-- Generator: Adobe Illustrator 19.0.0, SVG Export Plug-In . SVG Version: 6.00 Build 0)  -->
<svg version="1.1" id="Layer_1" xmlns="http://www.w3.org/2000/svg" xmlns:xlink="http://www.w3.org/1999/xlink" x="0px" y="0px"
	 viewBox="0 0 233 233" style="enable-background:new 0 0 233 233;" xml:space="preserve">
<style type="text/css">
	.st0{fill:#A4C639;}
	.st1{fill:#FFFFFF;}
</style>
<circle id="XMLID_65_" class="st0" cx="116.5" cy="116.5" r="116.5"/>
<path id="XMLID_206_" class="st1" d="M111.6,25.2c1.5,0.7,1.9,2,1.9,3.6c0,4.9-0.1,9.7,0,14.6c0,2-0.6,3.4-2.5,4
	c-2.6,0.8-3.2,2.4-3.1,5c0.2,8.4,0.1,16.8,0,25.1c0,1.2,0.3,1.9,1.4,2.5c2,1.2,3.9,2.5,5.8,3.7c5.9,3.7,8.5,9.3,9.3,16
	c0.2,2,0.2,4,0.2,6.1c0,2.2-1,3.4-2.7,3.3c-1.6,0-2.4-1.2-2.6-3.3c-0.1-2.6-0.1-5.3-0.6-7.9c-0.8-4.2-2.9-7.6-6.6-9.9
	c-2.6-1.6-5.1-3.3-7.6-4.8c-1.3-0.8-1.9-1.8-1.9-3.3c0-1.6,0-3.2,0-5c-5.7,0-11.3,0-17,0c0,1.6-0.1,3.2,0,4.7c0.1,1.7-0.6,2.8-2,3.7
	c-2.1,1.2-4.2,2.7-6.3,3.9c-5.4,3-7.9,7.8-8.2,13.8c-0.3,6.1-0.1,12.2-0.1,18.7c0.7,0,1.3,0,2,0c11.4,0,22.8,0,34.2,0
	c0.7,0,1.4,0,2.1,0.1c1.3,0.2,2,1.2,2.1,2.4c0,1.3-0.6,2.2-2,2.5c-0.7,0.1-1.5,0.2-2.2,0.2c-11.3,0-22.7,0-34,0c-0.7,0-1.3,0-2.1,0
	c0,5.7,0,11.3,0,17c1.8,0,3.6,0,5.4,0c0.4,0,0.8-0.4,1.1-0.7c6-6.5,13.7-8.2,22.1-7.4c5.9,0.6,11.1,2.9,15.2,7.4
	c0.4,0.4,1.2,0.6,1.8,0.7c1.9,0.2,2.8,1,2.9,2.6c0,1.5-1,2.5-2.8,2.6c-2.4,0.2-4.3-0.3-6-2.5c-2.9-3.8-7.3-5.2-11.9-5.7
	c-5.2-0.5-10.2,0.2-14.6,3.2c-1.2,0.8-2.3,1.9-3.2,3.1c-1.1,1.4-2.3,2-4,1.9c-2-0.1-3.9,0-6,0c0,2,0,3.8,0,5.9
	c2.1,0,4.3-0.2,6.5,0.1c1.1,0.1,2.5,0.6,3.1,1.4c2.8,3.6,6.5,5.5,10.8,6.3c6.1,1.2,12,0.4,17.2-3.3c0.9-0.7,1.8-1.5,2.4-2.4
	c1.1-1.6,2.5-2.3,4.4-2.1c1.8,0.1,3.7,0,5.7,0c0.1-0.7,0.2-1.3,0.3-1.9c0.3-1.3,1.2-1.9,2.5-1.9c1.2,0,2.1,0.7,2.4,1.9
	c0.1,0.6,0.2,1.3,0.2,1.9c0,11.6,0,23.2,0,34.9c0,7.3-3.7,12.5-10.3,14.3c-1.4,0.4-2.9,0.5-4.3,0.5c-10.6,0-21.2,0-31.7,0
	c-8.6,0-14.5-5.8-14.5-14.5c0-28.4,0-56.8,0-85.1c0-6.8,1.7-13.1,7.2-17.7c2.6-2.1,5.5-3.8,8.3-5.6c0.8-0.5,1.1-1.1,1.1-2.1
	c0-9.2,0-18.4,0-27.6c0-1.1-0.4-1.8-1.4-2c-3.6-1-4.6-3.4-4.3-7c0.3-4,0.1-8.1,0-12.1c0-1.6,0.4-2.9,1.7-3.9
	C88.2,25.2,99.9,25.2,111.6,25.2z M119.4,180.7c-16.9,0-33.5,0-50.3,0c0,3.1-0.2,6.1,0,9c0.4,4.8,3.9,7.8,8.7,7.9c2.2,0,4.4,0,6.6,0
	c8.7,0,17.3,0,26,0c5.2,0,8.6-3.3,8.9-8.4C119.5,186.4,119.4,183.7,119.4,180.7z M102.7,69.6c0-6.4,0.2-12.6-0.1-18.9
	c-0.2-3.7,0.8-6.1,4.4-7.3c0.5-0.1,1.1-0.8,1.1-1.3c0.1-3.9,0.1-7.7,0.1-11.7c-9.4,0-18.7,0-28.2,0c0,3,0.2,6-0.1,8.9
	c-0.2,2.6,0.5,4.3,3.1,5c2,0.6,2.6,2.1,2.6,4.2c-0.1,6.4,0,12.7,0,19.1c0,0.6,0,1.2,0,1.9C91.4,69.6,96.9,69.6,102.7,69.6z
	 M69.1,158.4c0,5.8,0,11.3,0,16.9c16.8,0,33.4,0,50.2,0c0-5.6,0-11.2,0-16.9c-1.8,0-3.6,0-5.3,0c-0.4,0-1,0.4-1.3,0.7
	c-3.1,3.5-7,5.6-11.5,6.6c-9.7,2.1-18.5,0.7-25.7-6.7c-0.3-0.3-0.8-0.6-1.2-0.6C72.7,158.3,70.9,158.4,69.1,158.4z"/>
<path id="XMLID_203_" class="st1" d="M117,116.6c-3.2,12.8,4.5,27,17,31.7c20.1,7.7,40.6-8.4,38-29.8c-0.2-1.5-0.7-2.1-2.2-2
	c-1.8,0.1-3.7,0.1-5.5,0c-1.8-0.1-2.8-1.1-2.8-2.6c0-1.5,1-2.4,2.8-2.5c3.1-0.1,6.2,0,9.4,0c1.5,0,2.4,0.9,2.8,2.4
	c5.2,19.2-8,39-27.8,41.4c-1.4,0.2-1.6,0.7-1.6,1.9c0,10.6,0,21.2,0,31.7c0,1.1,0.3,1.8,1.3,2.3c3.6,2,7,4.2,10.6,6.3
	c1.3,0.8,2.3,1.6,1.9,3.3c-0.4,1.8-1.8,2-3.4,2c-8.7,0-17.3,0-26,0c-1.5,0-2.8-0.3-3.3-1.9c-0.5-1.7,0.5-2.7,1.9-3.5
	c3.6-2.1,7.2-4.2,10.7-6.5c0.6-0.4,1.1-1.3,1.1-2c0.1-10.6,0-21.3,0.1-31.9c0-1.3-0.3-1.7-1.7-1.9c-16.4-1.9-29.1-16.4-28.9-32.8
	c0-2.8,0.7-5.6,1.1-8.4c0.2-1.8,1.4-2.6,3.1-2.6c0.3,0,0.6,0,0.9,0c11.7,0,23.5,0,35.2,0c2.8,0,4,0.8,4,2.7c-0.1,1.8-1.2,2.5-4,2.5
	c-10.7,0-21.5,0-32.2,0C118.4,116.6,117.7,116.6,117,116.6z M140.2,197.5c2.8,0,5.3,0,7.9,0C144.9,194.6,144.2,194.6,140.2,197.5z"
	/>
<path id="XMLID_200_" class="st1" d="M144.4,119.8c6.9,0,13.9,0,20.8,0c3.2,0,4.1,1,3.8,4.2c-1.1,12.7-10.4,22.1-23.1,23.1
	c-11.9,1-22.8-7-25.8-18.9c-0.4-1.6-0.5-3.2-0.6-4.8c-0.2-2.7,0.7-3.6,3.4-3.6C130,119.8,137.2,119.8,144.4,119.8z M163.5,125.1
	c-12.9,0-25.7,0-38.5,0c0.9,9.3,9.4,16.7,19.2,16.9C153.7,142.2,162.6,134.5,163.5,125.1z"/>
</svg>
