<?xml version="1.0" encoding="utf-8"?>
<!-- Generator: Adobe Illustrator 19.0.0, SVG Export Plug-In . SVG Version: 6.00 Build 0)  -->
<svg version="1.1" id="Layer_1" xmlns="http://www.w3.org/2000/svg" xmlns:xlink="http://www.w3.org/1999/xlink" x="0px" y="0px"
	 viewBox="0 0 233 233" style="enable-background:new 0 0 233 233;" xml:space="preserve">
<style type="text/css">
	.st0{fill:#A4C639;}
	.st1{fill:none;stroke:#F1F2F2;stroke-width:5;stroke-miterlimit:10;}
</style>
<circle id="XMLID_61_" class="st0" cx="116.5" cy="116.5" r="116.5"/>
<g id="XMLID_5_">
	<path id="XMLID_27_" class="st1" d="M89.1,55.3c0,0,7.1,23.2,31.4,21.3c0,0,21.8-0.5,26.8-21.3L174.1,66l33,35.6l-16.3,25.7
		l-16-6.4v75.7H62.5v-74.7l-15.1,5.5L29,101.3l34.2-35.1L89.1,55.3z"/>
	<line id="XMLID_11_" class="st1" x1="174.9" y1="120.1" x2="174" y2="66.3"/>
	<line id="XMLID_10_" class="st1" x1="62.4" y1="121" x2="61.5" y2="67.2"/>
	<polyline id="XMLID_9_" class="st1" points="95.2,66 114.5,56.6 123.8,56.6 141.9,66.3 	"/>
	<polyline id="XMLID_8_" class="st1" points="90.8,56.6 113.9,42 123.1,42 147.1,56.1 	"/>
	<path id="XMLID_7_" class="st1" d="M105.3,61.4c0,0,8.3,7.2,13.6,7.2c0,0,6.1,0.3,13.4-6.1"/>
	<path id="XMLID_6_" class="st1" d="M118.6,41l0.2-7c0,0,7.3-1.7,6.8-7.6c0,0-0.7-5.2-6.7-5.7s-7.3,5.2-6.9,7.8"/>
</g>
</svg>
