<?xml version="1.0" encoding="utf-8"?>
<!-- Generator: Adobe Illustrator 19.0.0, SVG Export Plug-In . SVG Version: 6.00 Build 0)  -->
<svg version="1.1" id="Layer_1" xmlns="http://www.w3.org/2000/svg" xmlns:xlink="http://www.w3.org/1999/xlink" x="0px" y="0px"
	 viewBox="0 0 233 233" style="enable-background:new 0 0 233 233;" xml:space="preserve">
<style type="text/css">
	.st0{fill:#A4C639;}
	.st1{fill:none;stroke:#F1F2F2;stroke-width:4;stroke-miterlimit:10;}
</style>
<circle id="XMLID_64_" class="st0" cx="116.5" cy="116.5" r="116.5"/>
<g id="XMLID_63_">
	<path id="XMLID_191_" class="st1" d="M29.1,124.9c2.4-6.7,4.8-13.5,7.2-20.2c2.3-6.4,4.5-12.9,6.9-19.3c1.6-4.3,4.4-7.7,9.1-9.3
		c0.2,0.5,0.4,0.9,0.6,1.3c1.5,4.2,3,8.4,4.4,12.6c0.2,0.7,0.3,1.5,0.2,2.2c-1.8,11.8-3.7,23.6-5.5,35.4c-0.1,0.3-0.1,0.6-0.1,1
		c-0.4,2.9,0.7,4.1,3.7,4.1c5.9,0,11.7,0.1,17.6,0c1.5,0,2.2,0.4,2.8,1.8c2.2,5.1,7.7,7.8,13.1,6.8c0.3,0,0.5-0.1,0.8-0.1
		c0.7,4.1-0.5,5.5-4.5,5.5c-1,0-1.9,0-3.1,0c0,0.8,0,1.4,0,2c0,13.6,0,27.2,0,40.8c0,4.3-2.5,7.2-6.5,7.6c-3.5,0.4-6.9-2-7.6-5.5
		c-0.2-1-0.2-1.9-0.2-2.9c0-13.3,0-26.5,0-39.8c0-0.6,0-1.3,0-2c-1,0-1.9,0-3,0c0,0.6,0,1.2,0,1.9c0,13.3,0,26.6,0,39.9
		c0,0.9,0,1.9-0.2,2.8c-0.7,3.6-3.9,6-7.4,5.7c-3.7-0.3-6.6-3.1-6.7-6.8c-0.1-5.5,0-11.1,0-16.6c0-8.9,0-17.8,0-27
		c-1.3,0-2.6,0-3.9,0c-2.9,0-4.4-1.8-3.8-4.7c2.7-14,5.3-27.9,8-41.9c0-0.1,0-0.2,0-0.8c-0.4,1.1-0.7,1.7-0.9,2.4
		c-3,8.7-6.1,17.3-9.1,26c-1.1,3.2-3.6,4.9-6.7,4.4c-2.7-0.4-4.1-2.2-5-4.6C29.1,126.6,29.1,125.8,29.1,124.9z"/>
	<path id="XMLID_190_" class="st1" d="M112.7,92.9c3.6-7.8,7.2-15.4,10.6-22.9c0.6-1.3,1.2-1.8,2.6-1.7c3.4,0.1,6.8-0.1,9.9,1.4
		c5.6,2.8,8.7,7.4,8.7,13.6c0.1,15.3,0,30.5,0,45.8c0,3.9-2.8,6.6-6.4,6.6c-3.6,0-6.2-2.8-6.2-6.8c0-13.9,0-27.7,0-41.6
		c0-1.2,0-2.4,0-3.6c0-0.9-0.2-1.9-1.3-1.8c-1.1,0-1.3,0.9-1.3,1.9c0,0.5,0,1.1,0,1.6c0.1,34.1,0.1,68.3,0.2,102.4
		c0,2.9-0.7,5.5-3.2,7.3c-4.5,3.4-11.1,0.6-11.9-5c-0.1-0.9-0.2-1.8-0.2-2.8c0-18.8,0-37.6,0-56.4c0-0.7,0-1.4,0-2.2
		c-1.1,0-2,0-3.3,0c0,0.7,0,1.4,0,2c0,19,0,38,0,57.1c0,2.1-0.2,4-1.5,5.7c-1.9,2.5-5,3.5-8,2.7c-3-0.8-5.2-3.4-5.5-6.5
		c-0.1-0.8-0.1-1.5-0.1-2.3c0-34.3,0-68.6,0-102.9c0-1,0.4-2.5-1.2-2.6c-1.7-0.1-1.3,1.5-1.4,2.6c-0.1,14.5-0.1,29-0.2,43.5
		c0,1.1-0.1,2.3-0.4,3.4c-0.9,2.9-3.8,4.5-6.8,4.1c-2.8-0.4-5-2.7-5.3-5.6c-0.1-0.5,0-1.1,0-1.6c0.1-14.8,0.2-29.7,0.3-44.5
		c0.1-7.7,4.2-13.3,11.4-15.1c2.6-0.6,5.5-0.4,8.3-0.5c0.4,0,1,0.7,1.2,1.2c3.3,7.1,6.6,14.2,9.9,21.3C112,91.5,112.3,92,112.7,92.9
		z"/>
	<path id="XMLID_189_" class="st1" d="M160.4,147.1c-1.1,0-2,0-3.1,0c0,0.7,0,1.3,0,1.9c0,13.6,0,27.2,0,40.8c0,4.2-2.7,7.3-6.5,7.6
		c-4.3,0.3-7.6-2.7-7.8-7.1c-0.1-1.9,0-3.8,0-5.7c0-11.8,0-23.6,0-35.4c0-0.6,0-1.3,0-2.1c-1,0-1.8,0-2.7,0c-4.4,0-5.4-1.1-4.8-5.4
		c1.9-0.1,3.8,0,5.6-0.4c3.9-0.8,6.6-3.2,8.2-6.8c0.5-1.1,1.1-1.4,2.2-1.4c6,0,12.1,0,18.1,0c3.3,0,4.4-1.3,3.9-4.6
		c-1.9-11.9-3.8-23.7-5.6-35.6c-0.2-1.2,0-2.5,0.3-3.6c1.4-4.3,3-8.6,4.6-12.9c3.4,0.9,5.8,3,7.4,5.8c1.3,2.1,2.3,4.4,3.1,6.8
		c4.1,11.4,8,22.8,12,34.3c0.5,1.3,0.8,2.9,0.6,4.3c-0.3,2.6-2.5,4.6-5.2,4.9c-2.5,0.3-5.1-1.1-6-3.5c-1.1-2.7-2-5.5-3-8.3
		c-2.1-6.1-4.3-12.2-6.4-18.3c-0.2-0.5-0.4-1-0.8-1.4c0.6,3.3,1.2,6.6,1.9,9.8c2,10.5,4,20.9,6,31.4c0.6,3.3-0.7,4.9-4.2,4.9
		c-1.1,0-2.2,0-3.5,0c0,0.8,0,1.5,0,2.2c0,13.4,0,26.7,0,40.1c0,4.2-1.8,6.9-5.3,7.8c-4.2,1.2-8.5-1.7-8.9-6
		c-0.1-0.9-0.1-1.7-0.1-2.6c0-13.2,0-26.3,0-39.5C160.4,148.4,160.4,147.8,160.4,147.1z"/>
	<path id="XMLID_188_" class="st1" d="M112.7,38.1c7.2,0,13,5.8,13,13c0,7.2-6,13.1-13.1,13c-7.1-0.1-12.9-5.9-13-13
		C99.6,44,105.6,38.1,112.7,38.1z"/>
	<path id="XMLID_187_" class="st1" d="M158.9,47.1c6.8,0,12.4,5.6,12.4,12.3c0,6.7-5.6,12.3-12.4,12.3c-6.8,0-12.3-5.5-12.4-12.3
		C146.5,52.7,152.1,47.1,158.9,47.1z"/>
	<path id="XMLID_186_" class="st1" d="M78.8,59.5c-0.2,6.8-5.9,12.4-12.5,12.2c-7-0.3-12.3-5.8-12.1-12.6
		c0.2-6.9,5.8-12.3,12.7-12.1C73.6,47.1,79,52.8,78.8,59.5z"/>
	<path id="XMLID_185_" class="st1" d="M149.7,75.9c6.2,0,12.1,0,18.2,0c-0.2,0.6-0.2,1-0.4,1.5c-1.4,3.9-2.8,7.8-4.2,11.8
		c-0.3,1-0.8,1.3-1.9,1.3c-1.9-0.1-3.8,0-5.7,0c-0.4,0-1-0.3-1.1-0.6C153,85.2,151.3,80.6,149.7,75.9z"/>
	<path id="XMLID_176_" class="st1" d="M57.5,75.7c5.9,0,11.9,0,18.1,0c-0.8,2.2-1.6,4.4-2.3,6.5c-0.8,2.2-1.6,4.5-2.4,6.8
		c-0.3,1-0.8,1.3-1.9,1.3c-1.8-0.1-3.7,0-5.5-0.1c-0.5,0-1.2-0.4-1.3-0.8c-1.6-4.4-3.2-8.9-4.7-13.3C57.4,76,57.5,75.8,57.5,75.7z"
		/>
	<path id="XMLID_164_" class="st1" d="M105.8,69.4c0-0.8,0-1.5,0-2.3c0-2.1,0.6-2.5,2.6-1.4c1.1,0.6,2.3,1.2,3.4,1.9
		c0.7,0.5,1.3,0.4,2.1,0c1.2-0.8,2.5-1.5,3.8-2.2c1.4-0.7,2.1-0.3,2.1,1.2c0.1,1.8,0,3.7,0,5.5c0,1.5-0.8,2-2.1,1.3
		c-1.7-0.9-3.3-2.4-5-2.5c-1.6,0-3.2,1.6-4.8,2.5c-1.3,0.7-2,0.3-2-1.1C105.7,71.3,105.8,70.3,105.8,69.4z"/>
</g>
</svg>
