<?xml version="1.0" encoding="utf-8"?>
<!-- Generator: Adobe Illustrator 19.0.0, SVG Export Plug-In . SVG Version: 6.00 Build 0)  -->
<svg version="1.1" id="Layer_1" xmlns="http://www.w3.org/2000/svg" xmlns:xlink="http://www.w3.org/1999/xlink" x="0px" y="0px"
	 viewBox="0 0 233 233" style="enable-background:new 0 0 233 233;" xml:space="preserve">
<style type="text/css">
	.st0{fill:#A4C639;}
	.st1{fill:#FFFFFF;}
</style>
<circle id="XMLID_105_" class="st0" cx="116.5" cy="116.5" r="116.5"/>
<path id="XMLID_79_" class="st1" d="M154.5,43.1c0.6,1,1.4,2,1.7,3.1c1.4,5,2.6,10.1,3.8,15.1c0.2,1,0.7,1.3,1.6,1.2c2-0.1,4,0,6,0
	c2.2,0,3,0.9,3,3.1c0,3.8,0,7.6,0,11.5c0,2.4-0.8,3.2-3.2,3.2c-0.5,0-1.1,0-1.8,0c-0.2,2.2-0.4,4.3-0.6,6.4
	c-0.9,11.2-1.9,22.4-2.8,33.5c-0.9,11.2-1.9,22.3-2.9,33.5c-0.9,11.2-1.9,22.4-2.8,33.5c-0.2,1.9-0.3,3.8-0.5,5.6
	c-0.2,1.9-1,2.6-2.9,2.6c-5.4,0-10.7,0-16.1,0c-19.5,0-38.9,0-58.4,0c-2.9,0-3.5-0.5-3.8-3.3c-0.8-8.8-1.5-17.7-2.3-26.5
	c-0.7-7.8-1.3-15.5-2-23.3c0-0.5-0.1-1-0.1-1.5c0-1.7,0.7-2.8,2.1-2.9c1.5-0.1,2.5,0.7,2.7,2.5c0.3,3.1,0.6,6.1,0.8,9.2
	c0.5,6.3,1,12.7,1.6,19c0,0.2,0.1,0.5,0.2,0.8c25.1,0,50.1,0,75.3,0c1.9-22.7,3.8-45.3,5.7-68c-29,0-57.9,0-86.8,0
	c0.3,3.9,0.7,7.8,1,11.6c0.5,5.6,0.9,11.2,1.4,16.8c0.2,1.9-0.6,3-2.1,3.1c-1.6,0.1-2.5-0.9-2.7-2.9c-1.4-16.4-2.8-32.7-4.2-49.1
	c0-0.2-0.1-0.4-0.1-0.8c-0.8,0-1.7,0-2.5,0c-1.5-0.1-2.4-0.9-2.4-2.4c0-4.3,0-8.5,0-12.8c0-1.7,1-2.5,2.8-2.5c2-0.1,4.1-0.1,6.1,0
	c0.9,0,1.4-0.2,1.6-1.2c1.2-5.1,2.4-10.1,3.8-15.1c0.3-1.1,1.1-2.1,1.7-3.1C102.5,43.1,128.5,43.1,154.5,43.1z M75.6,62.6
	c0.8,0,1.5,0,2.1,0c23.2,0,46.4,0,69.5,0c0.7,0,1.4,0,2.1,0.2c1.2,0.2,1.8,1.1,1.8,2.2c0,1.1-0.5,2-1.7,2.3
	c-0.7,0.2-1.5,0.2-2.2,0.2c-26.7,0-53.4,0-80.1,0c-0.6,0-1.2,0-1.8,0c0,2.8,0,5.4,0,8c33.5,0,67,0,100.5,0c0-2.7,0-5.2,0-8
	c-2.2,0-4.3,0-6.4,0c-2.1,0-2.8-0.5-3.3-2.6c-1.3-5-2.6-10.1-3.8-15.1c-0.3-1.5-1-1.8-2.4-1.8c-22.3,0-44.6,0-66.9,0
	c-3.7,0-3.7,0-4.6,3.6C77.5,55.2,76.6,58.8,75.6,62.6z M160.7,80.5c-30.2,0-60.2,0-90.4,0c0.5,5.4,0.9,10.7,1.4,16.1
	c29.3,0,58.4,0,87.7,0C159.8,91.3,160.2,85.9,160.7,80.5z M78.3,174.6c0.4,5.2,0.8,10.3,1.3,15.4c0,0.3,0.8,0.8,1.2,0.8
	c2.8,0.1,5.7,0,8.5,0c20.1,0,40.3,0,60.4,0c1.3,0,1.8-0.3,1.8-1.7c0-1.9,0.3-3.8,0.5-5.6c0.2-2.9,0.5-5.9,0.7-8.9
	C127.9,174.6,103.2,174.6,78.3,174.6z"/>
<path id="XMLID_76_" class="st1" d="M139.2,135.7c-0.2,10.4-8.5,17-19.2,15c-12.5-2.3-23.6-13.6-25.7-26.1c-1.2-7.4,1.8-14.2,7.8-17
	c5-2.3,10.1-2,15.1-0.1c10.1,3.9,17.1,10.9,20.6,21.2C138.6,131,138.7,133.4,139.2,135.7z M132.5,141.8c1.9-3.6,1.9-6.7,1.2-9.9
	c-1.1-5-3.7-9.1-7.2-12.6c-4.5-4.6-9.8-7.9-16.5-8.3c-2.1-0.1-4.2,0.1-6.4,1.5c0.9,0.7,1.6,1.3,2.2,1.9c1.5,1.4,2.9,2.8,4.3,4.3
	c0.9,1,0.8,2.5-0.1,3.4c-0.9,0.9-2.2,0.9-3.2,0.1c-0.4-0.3-0.8-0.7-1.2-1.1c-1.7-1.7-3.4-3.4-5.1-5.2c-1.5,2.5-1.8,5.8-1,9.5
	c1.1,4.9,3.8,9,7.3,12.6c4.5,4.6,9.8,7.8,16.5,8.2c2.1,0.1,4.1-0.1,6.4-1.6c-0.6-0.4-1.2-0.7-1.6-1c-4.6-4.5-9.1-9.1-13.7-13.7
	c-0.4-0.4-0.8-0.8-1.1-1.2c-0.7-1-0.6-2.1,0.3-3c0.9-0.9,1.9-1,3-0.3c0.5,0.3,0.8,0.7,1.2,1.1c4.6,4.6,9.2,9.2,13.8,13.8
	C131.9,140.6,132.1,141.1,132.5,141.8z"/>
</svg>
