<?xml version="1.0" encoding="utf-8"?>
<!-- Generator: Adobe Illustrator 19.0.0, SVG Export Plug-In . SVG Version: 6.00 Build 0)  -->
<svg version="1.1" id="Layer_1" xmlns="http://www.w3.org/2000/svg" xmlns:xlink="http://www.w3.org/1999/xlink" x="0px" y="0px"
	 viewBox="0 0 233 233" style="enable-background:new 0 0 233 233;" xml:space="preserve">
<style type="text/css">
	.st0{clip-path:url(#XMLID_10_);fill:#A4C639;}
	.st1{clip-path:url(#XMLID_10_);}
	.st2{fill:#FFFFFF;}
</style>
<g id="XMLID_5_">
	<defs>
		<circle id="XMLID_6_" cx="116.5" cy="116.5" r="116.5"/>
	</defs>
	<clipPath id="XMLID_10_">
		<use xlink:href="#XMLID_6_"  style="overflow:visible;"/>
	</clipPath>
	<circle id="XMLID_8_" class="st0" cx="116.5" cy="116.5" r="116.5"/>
	<g id="XMLID_7_" class="st1">
		<path id="XMLID_97_" class="st2" d="M27.7,65.9c0.2-0.4,0.5-0.8,0.9-1.5c1.4,1.5,2.8,3,4.2,4.3c2.5,2.5,5.4,2.7,7.5,0.5
			c2.1-2.2,2-4.8-0.6-7.5c-1.3-1.4-2.8-2.6-4.4-4c7.3-2.6,14.5,2.6,14.3,9.9c-0.1,2.1,0.6,3.4,2,4.8c3,2.8,5.8,5.8,8.9,8.8
			c3.6-3.6,7-7,10.3-10.4c0.4-0.4,0.6-1.3,0.5-2c-0.9-8.2,7.3-13.9,14.1-11.4c-1.7,1.7-3.4,3.3-4.9,5c-2.5,2.9-1.3,7.3,2.4,7.9
			c1.5,0.2,3.5-0.5,4.8-1.5c1.7-1.2,2.9-3,4.4-4.7c2.9,7.1-2.8,14.7-10.3,14.3c-1.6-0.1-2.7,0.3-3.8,1.5c-3,3.1-6.1,6.2-9.4,9.4
			c4.5,4.4,8.8,8.8,13.2,13c0.4,0.4,1.3,0.5,2,0.6c4.6,0.6,8,4.3,7.9,8.9c-0.1,4.5-3.7,8.4-8.2,8.7c-4.8,0.3-8.6-2.9-9.4-7.5
			c-0.2-1.2-0.8-2.4-1.6-3.3c-3.9-4.1-7.9-8-12-12.1c-4.4,4.4-8.7,8.6-13,13c-0.5,0.5-0.7,1.6-0.8,2.4c-0.7,4.7-4.6,7.9-9.4,7.6
			c-4.5-0.3-8.1-4.1-8.2-8.7c-0.1-4.6,3.3-8.3,7.9-8.9c0.7-0.1,1.6-0.2,2-0.6c4.4-4.3,8.7-8.6,13.1-13c-3.5-3.6-6.9-7-10.3-10.3
			c-0.4-0.4-1.3-0.7-1.9-0.7c-6.3,0-9.4-1.9-11.8-7.6c-0.1-0.3-0.3-0.5-0.5-0.7C27.7,68.8,27.7,67.4,27.7,65.9z M78.4,113.1
			c0.9,0.8,1.9,2.5,3.4,3c2.4,0.8,5.4-1.9,5-4.7c-0.2-1.4-1.9-3.2-3.4-3.7C81,106.9,78.7,109.3,78.4,113.1z M36.8,107.5
			c-0.8,0.9-2.7,2.1-3.1,3.6c-0.6,2.6,1.7,5.1,4.6,4.9c1.4-0.1,3.3-1.9,3.8-3.3C43,110.3,40.7,107.9,36.8,107.5z"/>
		<path id="XMLID_92_" class="st2" d="M48.1,188.8c0-3.8,0-7.2,0-10.9c-2.1,0-4.1,0-6.2,0c0-5.4,0-10.6,0-16c2,0,3.9,0,6.1,0
			c0-10.2,0-20.2,0-30.6c1.2,0,2.1,0,3.1,0c15.1,0,30.2,0,45.3,0c1.6,0,2.4-0.5,3.2-1.8c7.5-13,15-26,22.5-39c0.8-1.4,1.7-2,3.4-2
			c32.4,0.1,64.7,0.1,97.1,0c1.7,0,2.5,0.6,3.4,2c7.2,12.6,14.6,25.1,21.7,37.7c1.3,2.2,2.5,3.2,5.2,3.1c4.7-0.3,9.3-0.1,14.3-0.1
			c0,10.2,0,20.2,0,30.5c2.9,0,5.6,0,8.3,0c0,5.4,0,10.6,0,16c-2.7,0-5.3,0-8.2,0c0,3.7,0,7.2,0,10.9c-1.2,0.1-2,0.1-2.9,0.1
			c-8.7,0-17.4,0-26.2,0c-1.4,0-2.1,0.3-2.5,1.8c-2.9,9.8-11.4,16.2-21.1,16.2c-9.8-0.1-18.2-6.5-21-16.2c-0.1-0.5-0.3-0.9-0.5-1.7
			c-0.8,0-1.6,0-2.5,0c-20.4,0-40.8,0-61.3,0c-2,0-2.8,0.5-3.3,2.5c-2.5,9-11.3,15.5-20.8,15.5c-9.5,0-18.3-6.5-20.8-15.5
			c-0.5-1.9-1.3-2.5-3.3-2.5c-10,0.1-20,0.1-30,0.1C50.2,188.8,49.3,188.8,48.1,188.8z M193,180.8c0.3-0.9,0.5-1.6,0.7-2.3
			c1.8-6,5.5-10.5,11.2-13.3c12.5-6.1,26.9,0.3,30.7,13.6c0.4,1.5,1,2.1,2.6,2c3.8-0.1,7.6,0,11.4,0c3.1,0,6.2,0,9.4,0
			c0-14,0-27.7,0-41.5c-3.7,0-7.3-0.1-10.8,0.1c-2.5,0.1-3.8-0.6-5.1-2.9c-7.2-12.7-14.6-25.3-21.8-37.9c-0.9-1.5-1.8-2.1-3.6-2.1
			c-29.1,0.1-58.3,0.1-87.4,0c-1.9,0-2.9,0.7-3.8,2.2c-7.3,12.8-14.8,25.5-22.1,38.3c-1,1.7-2,2.3-3.9,2.3
			c-13.8-0.1-27.6-0.1-41.4,0c-0.9,0-1.9,0.1-2.8,0.1c0,13.9,0,27.5,0,41.2c0.4,0.1,0.7,0.1,1,0.1c8.2,0,16.5-0.1,24.7,0.1
			c1.8,0,1.9-1.1,2.2-2.2c2.7-9.2,11.2-15.7,20.9-15.8c9.5-0.1,18.4,6.5,20.9,15.7c0.5,1.8,1.2,2.4,3.1,2.3c20.5-0.1,41,0,61.5,0
			C191.5,180.8,192.3,180.8,193,180.8z M105.3,198.7c7.6,0,13.9-6.3,13.9-13.9c0-7.7-6.4-14-14.1-13.9c-7.6,0-13.9,6.3-13.9,13.9
			C91.2,192.4,97.5,198.7,105.3,198.7z M214.8,198.7c7.7,0,14-6.4,13.9-14c-0.1-7.6-6.3-13.8-13.9-13.8c-7.7,0-14.1,6.3-14.1,13.9
			C200.7,192.4,207.1,198.7,214.8,198.7z"/>
		<path id="XMLID_82_" class="st2" d="M210.5,138.5c-13.6,0-27,0-40.6,0c0-11,0-22,0-33c13.6,0,27,0,40.6,0
			C210.5,116.4,210.5,127.3,210.5,138.5z"/>
		<path id="XMLID_81_" class="st2" d="M161.7,105.4c0,11.1,0,22,0,33c-15.9,0-31.8,0-47.9,0c0.4-0.8,0.7-1.4,1-2
			c5.6-9.8,11.3-19.5,16.9-29.3c0.8-1.4,1.6-1.9,3.2-1.9c8.1,0.1,16.3,0,24.4,0C160.2,105.3,160.9,105.4,161.7,105.4z"/>
		<path id="XMLID_80_" class="st2" d="M219.2,112.7c4.9,8.5,9.9,17,14.9,25.8c-5.3,0-10.2,0-15.3,0c0-8.5,0-17,0-25.5
			C218.9,112.9,219.1,112.8,219.2,112.7z"/>
	</g>
</g>
</svg>
