<?xml version="1.0" encoding="utf-8"?>
<!-- Generator: Adobe Illustrator 19.0.0, SVG Export Plug-In . SVG Version: 6.00 Build 0)  -->
<svg version="1.1" id="Layer_1" xmlns="http://www.w3.org/2000/svg" xmlns:xlink="http://www.w3.org/1999/xlink" x="0px" y="0px"
	 viewBox="0 0 233 233" style="enable-background:new 0 0 233 233;" xml:space="preserve">
<style type="text/css">
	.st0{fill:#A4C639;}
	.st1{fill:#FFFFFF;}
</style>
<circle id="XMLID_6_" class="st0" cx="116.5" cy="116.5" r="116.5"/>
<g id="XMLID_5_">
	<path id="XMLID_133_" class="st1" d="M172.4,46.2c1.9,0.6,2.5,2,2.5,3.8c-0.1,3,0.2,5.9-0.1,8.9c-0.4,5.9,1.4,11.5,2.6,17.1
		c1.1,5.3,2.5,10.5,3.5,15.8c0.8,4.5-0.6,8.7-3.3,12.3c-7.5,10.4-22.3,10.7-30.2,0.6c-0.2-0.3-0.5-0.6-0.8-0.9
		c-7.9,11.3-23.7,10.9-31.5,0c-3.9,5.2-9,8.3-15.7,8.3c-6.7,0-11.8-3.1-15.7-8.3c-5.8,7.3-12.9,10-22,7.3c0,0.6,0,1.1,0,1.6
		c0,14.2,0,28.4,0,42.6c0,2.4-0.7,3.4-2.4,3.8c-1.9,0.4-3.5-0.7-3.8-2.6c-0.1-0.5-0.1-1.1-0.1-1.6c0-15.3,0-30.7,0-46
		c0-1-0.2-1.7-0.9-2.4c-3.6-3.7-5.5-8.1-5.3-13.3c0.1-2.2,0.9-4.5,1.5-6.7c1.5-5.8,3-11.7,4.4-17.5c0.2-0.8,0.3-1.7,0.3-2.5
		c0-5.5,0-11,0-16.5c0-1.9,0.6-3.2,2.5-3.8C96.2,46.2,134.3,46.2,172.4,46.2z M80.2,96.4c-4.8,0-9.5,0-14.2,0c-0.7,0-1.4,0-2-0.2
		c-1.4-0.4-2.2-1.8-2.1-3.2c0.2-1.7,1.2-2.8,3-2.8c2.8-0.1,5.7,0,8.5,0c3.4,0,6.7,0,10.1,0c2.2,0,3.1,0.9,3.4,3
		c0.1,0.9,0.1,1.9,0.4,2.8c2.2,9,12.3,12.7,19.8,7.3c2.3-1.7,3.9-3.9,4.6-6.9c-1.3,0-2.3,0-3.4,0c-3.9,0-7.7,0-11.6,0
		c-2.2,0-3.4-1.2-3.4-3.1c0-1.9,1.2-3.1,3.5-3.1c5.8,0,11.7,0,17.5,0c3,0,3.9,0.9,4.2,3.9c0.4,5,2.9,8.7,7.5,10.7
		c4.4,2,8.7,1.4,12.6-1.4c2.3-1.7,3.9-3.9,4.6-6.9c-0.6,0-1.1,0-1.6,0c-4.5,0-8.9,0-13.4,0c-2,0-3.1-0.9-3.4-2.6
		c-0.4-2.1,1-3.6,3.4-3.7c5.5,0,11,0,16.5,0c4.5,0,4.8,0.3,5.3,4.6c1.3,9.6,12.2,14.3,20,8.5c2.3-1.7,3.8-3.9,4.6-6.9
		c-0.7,0-1.1,0-1.6,0c-4.5,0-8.9,0-13.4,0c-1.9,0-2.9-0.8-3.3-2.2c-0.6-2.4,0.7-4,3.3-4c4.3,0,8.5,0,12.8,0c0.5,0,1,0,1.5,0
		c0-0.5,0-0.8-0.1-1.1c-1.2-5.5-2.4-11-3.6-16.6c-0.2-0.9-0.5-1.2-1.5-1.2c-5.9,0-11.8,0-17.7,0c-0.4,0-0.8,0.1-1.2,0.1
		c0,0.9,0,1.6,0,2.4c0,2.3,0.1,4.7,0,7c-0.1,1.9-1.3,3-3.1,3c-1.8,0-3-1.1-3.1-3c-0.1-0.9,0-1.8,0-2.7c0-2.2,0-4.5,0-6.7
		c-8.5,0-16.8,0-25.1,0c0,1.3,0,2.4,0,3.6c0,2.1,0,4.1-0.1,6.2c-0.1,1.7-1.3,2.6-3,2.6c-1.7,0-2.9-0.9-3-2.6
		c-0.2-1.7-0.1-3.5-0.1-5.2c0-1.5,0-3,0-4.6c-8.5,0-16.7,0-25.1,0c0,0.6,0,1.1,0,1.6c0,2.6,0,5.1,0,7.7c0,1.7-0.9,2.8-2.3,3.1
		c-2.4,0.5-3.9-0.8-3.9-3.3c0-3,0-6,0-9c-0.3-0.1-0.4-0.1-0.5-0.1c-6,0-12,0-18.1,0c-0.9,0-1,0.5-1.2,1.1
		c-1.6,6.4-3.2,12.7-4.8,19.1c-0.2,0.8-0.5,1.7-0.5,2.5c0.3,7.3,7,12.8,14.2,11.8C75,105,79.4,101,80.2,96.4z M61.9,64.9
		c35.6,0,71.1,0,106.6,0c0-4.2,0-8.3,0-12.4c-35.6,0-71.1,0-106.6,0C61.9,56.7,61.9,60.7,61.9,64.9z"/>
	<path id="XMLID_132_" class="st1" d="M46.2,167.9c0.7-1.8,2.1-2.4,3.9-2.4c5.5,0,11,0,16.5,0c0.5,0,1,0,1.6,0c0-0.7,0-1.3,0-1.8
		c0-14.6,0-29.2,0-43.8c0-0.6,0-1.3,0.1-1.9c0.1-1.4,1-2.3,2.4-2.5c0.5-0.1,1.1-0.1,1.6-0.1c9.8,0,19.6,0,29.4,0
		c3.2,0,4.2,0.9,4.2,4.2c0,12,0,23.9,0,35.9c0,2.4-0.7,3.4-2.6,3.8c-1.8,0.3-3.3-0.8-3.6-2.6c-0.1-0.5-0.1-1.1-0.1-1.6
		c0-10.6,0-21.1,0-31.7c0-0.5,0-1.1,0-1.7c-8.4,0-16.7,0-25,0c0,14.6,0,29.1,0,43.8c31.3,0,62.6,0,94.1,0c0-0.5,0-1,0-1.6
		c0-14.9,0-29.8,0-44.7c0-2.3,0.7-3.4,2.4-3.8c1.9-0.4,3.4,0.7,3.7,2.5c0.1,0.5,0.1,1,0.1,1.5c0,16.1,0,32.2,0,48.3
		c0,0.6,0,1.2-0.1,1.7c-0.3,1.3-1.1,2.1-2.5,2.3c-0.7,0.1-1.4,0.1-2.2,0.1c-38.5,0-77.1,0-115.6,0c-0.6,0-1.2,0-2,0
		c0,2.1,0,4.1,0,6.2c41.8,0,83.5,0,125.5,0c0-0.4,0.1-0.9,0.1-1.4c0-2.6,0-5.1,0-7.7c0-2.2,1.3-3.4,3.2-3.4c1.9,0,3,1.3,3.1,3.4
		c0,4,0,8,0,12c0,2.3-1.1,3.4-3.4,3.4c-0.2,0-0.4,0-0.7,0c-43.3,0-86.6,0-129.9,0c-1.9,0-3.5-0.4-4.1-2.4
		C46.2,177.2,46.2,172.5,46.2,167.9z"/>
	<path id="XMLID_129_" class="st1" d="M137.3,115.2c7,0,14,0,21,0c2.9,0,4,1,4,4c0,12,0,24,0,36c0,3-1,4-4,4c-14.1,0-28.2,0-42.3,0
		c-2.8,0-3.9-1.1-3.9-3.9c0-12,0-24.1,0-36.1c0-2.9,1.1-3.9,3.9-3.9C123.1,115.2,130.2,115.2,137.3,115.2z M118.5,152.8
		c12.5,0,25,0,37.5,0c0-10.5,0-20.9,0-31.3c-12.5,0-25,0-37.5,0C118.5,132,118.5,142.4,118.5,152.8z"/>
	<path id="XMLID_128_" class="st1" d="M93.3,146.6c-1.7,0-3.1-1.4-3.1-3.1c0-1.6,1.4-3.1,3-3.2c1.7,0,3.2,1.4,3.2,3.2
		C96.3,145.2,95,146.6,93.3,146.6z"/>
</g>
</svg>
