<?xml version="1.0" encoding="utf-8"?>
<!-- Generator: Adobe Illustrator 19.0.0, SVG Export Plug-In . SVG Version: 6.00 Build 0)  -->
<svg version="1.1" id="Layer_1" xmlns="http://www.w3.org/2000/svg" xmlns:xlink="http://www.w3.org/1999/xlink" x="0px" y="0px"
	 viewBox="0 0 233 233" style="enable-background:new 0 0 233 233;" xml:space="preserve">
<style type="text/css">
	.st0{fill:#A4C639;}
	.st1{fill:#FFFFFF;}
</style>
<circle id="XMLID_75_" class="st0" cx="116.5" cy="116.5" r="116.5"/>
<path id="XMLID_266_" class="st1" d="M16.7,126.9c1-2.7,1.6-5.5,3-8c2.8-4.9,7.3-7.5,12.8-8.6c7.8-1.5,15.6-2.7,23.4-4.5
	C68,103.1,79.1,98,89.6,91.2c4.7-3,9.5-6,14.2-9.1c6-3.9,12.5-5.9,19.7-5.7c0.7,0,1.5-0.3,2.1-0.8c3-2.2,5.9-4.5,9-6.6
	c5.7-3.8,13.4-0.9,14.9,5.8c0.5,2.3,0,4.9-0.4,7.4c-0.4,2.3-2.1,4.6-1.7,6.6c0.4,1.9,2.7,3.5,4.2,5.2c2.2,2.5,4.3,5,7.6,6
	c6,1.9,12.5-1.1,14.7-7c0.8-2,1.3-4.2,1.9-6.3c1.3-4.4,4.7-7.1,9-7.3c3.9-0.2,7.4,2.3,9.1,6.4c5.1,12.1,7.4,24.7,7.4,37.8
	c0,3.6,0.2,7,1.4,10.6c1.2,3.6,1.4,7.5,1.6,11.3c0.2,5.5-3.5,9.2-9,9.5c-0.6,0-1.2,0-1.8,0c-38.2,0-76.3,0-114.5,0
	c-16.4,0-32.4-2.5-48-7.9c-7.6-2.6-12.4-7.4-14-15.4c0-0.2-0.2-0.3-0.3-0.5C16.7,129.9,16.7,128.4,16.7,126.9z M195.2,128.2
	c0-2,0-3.7,0-5.4c0.1-12.1-2.3-23.6-6.9-34.7c-0.7-1.6-1.7-2.6-3.4-2.5c-1.8,0.1-2.8,1.1-3.2,2.8c-0.4,1.4-0.7,2.9-1.2,4.2
	c-1,2.3-1.8,4.9-3.3,6.9c-7.2,9.4-20.1,9.8-28,1c-2.7-2.9-5.2-6-7.9-8.9c-1.4-1.5-2.9-2.8-4.6-4.4c-2.5,6.7-6.6,11.6-12.3,15.3
	c0.4,0.6,0.7,1.1,1,1.6c5.4,8.5,10.8,17,16.2,25.5c0.8,1.2,1.6,1.6,2.9,1.5c13.7-0.6,27.4-1.2,41.2-1.8
	C188.7,128.9,191.9,128.5,195.2,128.2z M23.3,132.3c1.4,4.2,3.9,7.1,7.8,8.5c13.7,5,27.8,8,42.4,8c40.2,0.2,80.5,0.1,120.7,0.1
	c0.2,0,0.4,0,0.5,0c2.3-0.1,3.5-1.1,3.4-3.3c-0.2-3.1-0.7-6.2-1-9.2c-0.2-1.9-1.3-2.3-3.1-2.1c-16.2,1.7-32.4,2.5-48.6,2.6
	c-12.4,0.1-24.6,1.2-36.8,3.5c-9.6,1.8-19.2,2.7-28.9,2.6c-14.1-0.2-27.8-2.7-41.3-6.3C33.4,135.3,28.5,133.8,23.3,132.3z
	 M87.5,115.5c-1.8,0.6-3.5,1.1-5.1,1.7c-5.6,1.9-11.3,2.1-16.9,0.5c-3.4-1-6.7-2.4-9.9-3.8c-1.8-0.8-3.5-0.9-5.5-0.5
	c-5.9,1.2-11.9,2.1-17.8,3.3c-4.7,1-8.4,5.1-8.8,9.2c24.8,7.9,49.9,13.7,76.6,9.6C95.8,128.8,91.7,122.2,87.5,115.5z M63.6,110.6
	c0.1,0,0.6,0.3,1.1,0.5c5.4,2,10.8,2,16.3,0.2c11.5-3.9,23-7.6,34.5-11.6c2.6-0.9,5.2-2.3,7.4-3.9c4-2.9,6.7-6.8,8.1-11.6
	c-1-0.3-1.8-0.6-2.6-0.9c-7.5-1.9-14.5-0.6-21,3.5c-7.5,4.7-14.8,9.8-22.5,14C78.1,104.6,70.7,107.4,63.6,110.6z M109.2,108.3
	c5.2,7.7,10.1,15.2,15.1,22.6c0.3,0.4,0.8,0.8,1.3,0.8c3.2-0.1,6.3-0.4,9.8-0.7c-5.6-8.8-11.1-17.4-16.5-26
	C115.6,106.1,112.5,107.2,109.2,108.3z M118.1,132.6c-5-7.4-9.7-14.6-14.5-21.7c-0.2-0.3-1-0.5-1.4-0.4c-2.9,0.9-5.8,1.9-8.9,2.9
	c4.3,6.9,8.6,13.8,12.9,20.5c0.2,0.2,0.7,0.4,1.1,0.3C110.8,133.9,114.3,133.3,118.1,132.6z M142.3,83.6c0.5-1.7,1.1-3.4,1.4-5.1
	c0.3-1.8-0.1-3.6-1.9-4.6c-1.6-0.9-3.2-0.5-4.6,0.6c-1.5,1.2-3.1,2.3-4.6,3.5C135.8,79.8,139,81.6,142.3,83.6z"/>
<path id="XMLID_248_" class="st1" d="M113.6,94.3c0.1-1.6,1.7-2.9,3.2-2.8c1.5,0.2,2.8,1.6,2.7,3.1c-0.1,1.6-1.5,2.9-3.2,2.8
	C114.7,97.4,113.4,95.9,113.6,94.3z"/>
<path id="XMLID_247_" class="st1" d="M101.4,103.5c-1.6,0-3.1-1.4-3-3c0-1.6,1.3-2.9,3-2.9c1.6,0,2.9,1.2,3,2.8
	C104.4,102.1,103.1,103.5,101.4,103.5z"/>
</svg>
