<?xml version="1.0" encoding="utf-8"?>
<!-- Generator: Adobe Illustrator 19.0.0, SVG Export Plug-In . SVG Version: 6.00 Build 0)  -->
<svg version="1.1" id="Layer_1" xmlns="http://www.w3.org/2000/svg" xmlns:xlink="http://www.w3.org/1999/xlink" x="0px" y="0px"
	 viewBox="0 0 233 233" style="enable-background:new 0 0 233 233;" xml:space="preserve">
<style type="text/css">
	.st0{fill:#A4C639;}
	.st1{fill:#FFFFFF;}
</style>
<circle id="XMLID_6_" class="st0" cx="116.5" cy="116.5" r="116.5"/>
<g id="XMLID_5_">
	<path id="XMLID_111_" class="st1" d="M169.2,46.2c2.8,1.2,3.7,3.3,3.6,6.2c-0.1,2.4,0,4.8,0,7.1c0,3.1-1.4,4.8-4.7,5.4
		c0,1.6-0.1,3.3,0,5c0,0.4,0.5,0.8,0.9,1c2.6,1.4,5.3,2.6,7.9,4.1c6.6,3.7,10,9.3,9.9,16.9c-0.1,5.6,0,11.2,0,16.7
		c0,2.2-0.5,4.3-1.3,6.4c-0.6,1.4-1,3-1,4.5c-0.1,12-0.1,24,0,36c0,1.6,0.7,3.2,1.1,4.7c0.4,1.5,1.1,2.9,1.1,4.3
		c0.2,3.6,0.2,7.2,0,10.8c-0.4,6.6-5.2,11.1-11.8,11.3c-4.3,0.1-4.8-0.1-9.3-3.7c-2.5,2.6-5.5,3.8-9.2,3.8c-3.7,0-6.8-0.9-9.2-3.7
		c-1.5,1-2.8,2.2-4.3,2.8c-6.9,2.6-15.8-0.9-16.8-9.4c-0.4-4-0.2-8-0.1-12.1c0-1.4,0.6-2.9,1.2-4.2c0.7-1.7,1.1-3.3,1.1-5.2
		c0-11.8,0-23.6-0.1-35.4c0-1.6-0.7-3.3-1-4.9c-0.4-1.9-1.2-3.8-1.2-5.7c-0.2-6-0.1-12.1,0-18.1c0.1-7.9,4.2-13.2,11-16.7
		c2.2-1.1,4.5-2.3,6.7-3.4c0.7-0.3,1-0.7,1-1.5c-0.1-1.5,0-2.9,0-4.4c-0.3-0.1-0.6-0.1-0.8-0.2c-2.4-0.5-3.8-2.2-3.8-4.8
		c-0.1-3,0-5.9,0-8.9c0-2.5,1.4-3.9,3.5-4.9C152,46.2,160.6,46.2,169.2,46.2z M179.7,154c0-0.7,0-1.2,0-1.8c0-10.7,0-21.4,0-32.1
		c0-2.5,0.4-4.9,1.5-7.2c0.5-1.2,0.8-2.5,0.9-3.8c0.1-5.9,0-11.9,0-17.8c0-5.1-2.2-9-6.6-11.6c-3.2-1.9-6.5-3.5-9.9-5.1
		c-1.7-0.8-2.4-1.9-2.3-3.7c0.1-1.9,0-3.9,0-5.9c-4.8,0-9.3,0-14.1,0c0,2.1-0.1,4.1,0,6.1c0.1,1.7-0.6,2.7-2.1,3.4
		c-2.7,1.3-5.4,2.7-8.1,4c-5.8,2.9-8.8,7.4-8.6,14c0.2,4.5,0.2,9,0,13.4c-0.2,3.8,0.8,7.1,2.4,10.5c0.4,0,0.9,0,1.4,0
		c12.4,0,24.9,0,37.3,0c0.5,0,1,0,1.5,0.1c1.2,0.2,1.9,1.2,1.9,2.3c0,1.2-0.8,2.1-2,2.2c-0.5,0.1-1,0-1.5,0c-12.3,0-24.6,0-36.9,0
		c-0.5,0-1.1,0-1.7,0c0,0.7,0,1.3,0,1.8c0,10.8,0,21.6,0,32.4c0,1.8-0.1,3.7-0.9,5.2c-1.3,2.8-1.6,5.6-1.5,8.5c0.1,1.7,0,3.5,0,5.2
		c0,3.3,1.2,5.9,4.3,7.1c3,1.2,6.1,1.2,8.5-1.6c0.5-0.5,1.1-1,1.6-1.5c1.4-1.3,2.5-1.3,4,0c0.8,0.8,1.7,1.6,2.5,2.3
		c1,0.9,2.1,1.2,3.5,1.4c3.5,0.4,6.3-0.7,8.5-3.4c0.2-0.2,0.4-0.4,0.6-0.6c1.2-1,2.3-1,3.4,0c0.6,0.5,1.3,1.1,1.8,1.7
		c1.7,2.1,3.9,2.5,6.4,2.2c3.5-0.4,6.4-3,6.4-6.6c0-5.1,1.1-10.4-1.6-15.2c0-0.1-0.1-0.2-0.1-0.3c-0.1-1.2-0.8-1.4-1.9-1.4
		c-12.4,0-24.9,0-37.3,0c-0.6,0-1.3,0-1.9-0.2c-1.1-0.3-1.7-1.1-1.6-2.3c0-1.1,0.6-1.9,1.8-2.1c0.6-0.1,1.3-0.1,1.9-0.1
		c12.2,0,24.3,0,36.5,0C178.4,154,179,154,179.7,154z M149.3,60.1c0-0.7,0-1.2,0-1.7c0.1-1.9,0.9-2.9,2.4-2.9c1.4,0,2.3,1.1,2.3,3
		c0,0.5,0,1,0.1,1.6c1.6,0,3,0,4.5,0c0.2-1.9-0.5-4.5,2.5-4.5c2.8,0.1,2.1,2.6,2.4,4.5c1.5,0,3,0,4.5,0c0-3.1,0-6.2,0-9.2
		c-7.8,0-15.5,0-23.3,0c0,3.1,0,6.1,0,9.2C146.2,60.1,147.7,60.1,149.3,60.1z"/>
	<path id="XMLID_110_" class="st1" d="M46.2,85.2c1.7-2,2.8-2,4.7-0.1c0.7,0.7,1.5,1.5,2.4,2.5c0.9-1,1.7-2,2.7-2.9
		c1.3-1.3,2.5-1.3,3.8,0c0.9,0.9,1.7,1.8,2.8,3c0.9-1,1.6-1.8,2.3-2.6c1.8-1.8,2.8-1.8,4.6,0c0.7,0.7,1.4,1.5,2.5,2.7
		c0.9-1.1,1.7-2.1,2.6-3c1.3-1.3,2.6-1.3,3.9,0c0.9,0.9,1.7,1.8,2.7,2.8c1-1.1,1.9-2,2.8-2.9c1.3-1.2,2.5-1.3,3.8,0
		c0.9,0.9,1.7,1.9,2.7,3c1.1-1.2,2-2.2,2.9-3.1c1.2-1.2,2.5-1.2,3.7,0c0.9,0.9,1.8,1.9,2.8,3c1-1,1.7-1.9,2.6-2.7
		c1.6-1.6,2.7-1.6,4.3,0c0.8,0.8,1.5,1.7,2.5,2.7c1-1.1,1.9-2.1,2.8-3c1.3-1.3,2.5-1.3,3.8,0c1.4,1.4,2.8,2.8,4.2,4.2
		c1.2,1.2,1.2,2.5,0.2,3.5c-1,1-2.3,0.9-3.5-0.2c-0.9-0.9-1.7-1.9-2.8-3c-1,1.1-1.8,2.1-2.8,3c-1.3,1.3-2.5,1.3-3.8,0
		c-0.9-0.9-1.7-1.8-2.9-3c-0.9,1-1.6,2-2.4,2.9c-1.5,1.5-2.7,1.5-4.1,0c-0.8-0.8-1.6-1.7-2.8-2.9c-0.9,1.1-1.6,2.1-2.5,2.9
		c-1.4,1.5-2.6,1.4-4.1,0c-0.8-0.8-1.6-1.7-2.6-2.7c-1,1-1.7,1.8-2.5,2.6c-1.6,1.6-2.8,1.6-4.4,0c-0.8-0.8-1.5-1.6-2.5-2.7
		c-0.8,0.9-1.4,1.6-2.1,2.3c-2.2,2.2-3.1,2.2-5.2,0c-0.7-0.7-1.2-1.5-2-2.4c-1.1,1.2-2,2.2-2.9,3c-1.3,1.3-2.5,1.2-3.8,0
		c-0.9-0.8-1.7-1.7-2.5-2.5c-0.1-0.1-0.2-0.1-0.4-0.2c-0.7,0.7-1.3,1.5-2.1,2.3c-1.7,1.8-2.5,1.8-4.6,0.3c0,20.7,0,41.3,0,62.1
		c0.5,0,1.1,0,1.7,0c22.3,0,44.7,0,67,0c0.6,0,1.3,0,1.9,0.1c1.2,0.2,1.8,1,1.9,2.2c0,1.2-0.6,2-1.8,2.3c-0.6,0.1-1.3,0.1-1.9,0.1
		c-22.3,0-44.7,0-67,0c-0.6,0-1.2,0-1.9,0c0,1.1,0,2,0,3c0,4.1,0,8.1,0,12.2c0,5.5,2.7,8.2,8.3,8.2c20.2,0,40.4,0,60.7,0
		c0.5,0,0.9,0,1.4,0c1.4,0.1,2.3,1.1,2.3,2.3c0,1.2-0.9,2.2-2.2,2.3c-0.5,0-0.9,0-1.4,0c-20.3,0-40.5-0.1-60.8,0
		c-6.8,0-11.9-4.2-12.7-10.1c0-0.1-0.1-0.2-0.2-0.4C46.2,145.9,46.2,115.5,46.2,85.2z"/>
	<path id="XMLID_109_" class="st1" d="M121.2,60.3c-1.6,0-3.1,0-4.7,0c0,0.5,0,1,0,1.5c0,5.4,0,10.8,0,16.2c0,0.5,0,1.1-0.1,1.6
		c-0.3,1.1-1.1,1.7-2.2,1.7c-1.2,0-2-0.7-2.2-1.9c-0.1-0.4-0.1-0.9-0.1-1.4c0-5.4,0-10.8,0-16.2c0-0.5,0-1,0-1.5
		c-9.4,0-18.7,0-28.1,0c0,0.6,0,1.1,0,1.7c0,5.3,0,10.5,0,15.8c0,0.6,0,1.2-0.1,1.8c-0.2,1.2-1.1,1.8-2.3,1.8
		c-1.1,0-1.9-0.6-2.1-1.8C79,79,79,78.5,79,78c0-5.6,0-11.3,0-16.9c0-3.8,1.8-5.6,5.6-5.6c11.8,0,23.7,0,35.5,0
		c3.9,0,5.7,1.7,5.7,5.7c0,5,0,10,0,15c0,1.6-0.7,2.5-2,2.7c-1.6,0.2-2.7-0.8-2.7-2.8c0-4.5,0-9.1,0-13.6
		C121.2,61.8,121.2,61.1,121.2,60.3z"/>
	<path id="XMLID_108_" class="st1" d="M56.3,64.1c0,3.2,0.1,6.5,0,9.7c-0.1,1.9-0.5,3.7-0.8,5.6c-0.3,1.4-1.5,2.2-2.7,1.9
		c-1.2-0.3-2.1-1.5-1.8-2.8c1.6-7.7,0.9-15.5,0.1-23.2c-0.1-0.5-0.4-1.1-0.7-1.5c-0.4-0.6-1-1-1.4-1.7c-0.6-0.9-0.5-1.9,0.3-2.8
		c0.8-0.8,2-1.2,2.7-0.4c2.9,3.1,7.2,4.1,10.4,6.7c7.2,5.8,10.9,13.3,11.9,22.4c0,0.4,0.1,0.7,0,1.1c-0.1,1.3-1,2.2-2.2,2.2
		c-1.2,0-2.1-0.6-2.3-1.9c-0.4-2.1-0.6-4.3-1.1-6.3c-1.4-5.1-4-9.5-8.3-12.8c0.2,0.5,0.4,0.9,0.6,1.4c2.4,5.4,3.7,11.1,4,17
		c0.1,1.5-0.9,2.6-2.2,2.6c-1.2,0.1-2.2-0.9-2.4-2.3c0-0.2,0-0.5,0-0.7c-0.3-4.6-1.3-9.1-3-13.4c-0.1-0.3-0.2-0.6-0.4-0.8
		C56.7,64,56.5,64.1,56.3,64.1z"/>
	<path id="XMLID_86_" class="st1" d="M156.3,144.6c-3.6,0-7.1,0-10.7,0c-0.5,0-1,0-1.5-0.1c-1.1-0.2-1.7-1-1.8-2.1
		c0-1.1,0.5-1.9,1.6-2.3c0.6-0.2,1.2-0.2,1.8-0.2c7.1,0,14.2,0,21.3,0c0.5,0,1.1,0,1.6,0.2c1.2,0.3,1.8,1.1,1.7,2.3
		c-0.1,1.2-0.7,2-1.9,2.1c-0.8,0.1-1.6,0.1-2.3,0.1C162.8,144.6,159.5,144.6,156.3,144.6z"/>
	<path id="XMLID_85_" class="st1" d="M153.8,135.2c-2.9,0-5.8,0-8.6,0c-1.9,0-2.9-0.9-2.9-2.4c0-1.4,1.1-2.3,2.8-2.3
		c5.9,0,11.8,0,17.7,0c1.8,0,2.8,0.9,2.8,2.3c0,1.4-1,2.3-2.8,2.3C159.8,135.2,156.8,135.2,153.8,135.2z"/>
</g>
</svg>
