<?xml version="1.0" encoding="utf-8"?>
<!-- Generator: Adobe Illustrator 19.0.0, SVG Export Plug-In . SVG Version: 6.00 Build 0)  -->
<svg version="1.1" id="Layer_1" xmlns="http://www.w3.org/2000/svg" xmlns:xlink="http://www.w3.org/1999/xlink" x="0px" y="0px"
	 viewBox="0 0 233 233" style="enable-background:new 0 0 233 233;" xml:space="preserve">
<style type="text/css">
	.st0{fill:#A4C639;}
	.st1{fill:#FFFFFF;}
</style>
<circle id="XMLID_6_" class="st0" cx="116.5" cy="116.5" r="116.5"/>
<g id="XMLID_5_">
	<path id="XMLID_101_" class="st1" d="M119.2,136.5c-2.3,1.4-4,2.7-5.8,3.4c-5,1.9-9.8,1.2-13.5-2.6c-12.7-12.8-25.5-25.6-37.7-38.9
		c-6.6-7.2-10.7-16-12.1-25.8c-1.1-7.8-0.2-15.2,3.7-22.1c2.5-4.3,4.8-4.6,8.3-1.2c35.8,35.8,71.7,71.7,107.5,107.5
		c2.5,2.5,5.1,5,7.4,7.7c5,6,4.4,14.9-1.1,20.4c-5.5,5.5-14.5,6.2-20.4,1.2c-3.9-3.4-7.5-7.1-11.1-10.8
		c-5.7-5.7-11.4-11.5-17.2-17.2c-4.3-4.3-5.7-9.2-3.7-15c0.2-0.6,0.2-1.5-0.1-1.9C122,139.6,120.5,138,119.2,136.5z M59.2,57.5
		c-2.1,3.9-2.6,10.1-1.3,15.7c2.2,10.4,8,18.9,15.1,26.3c10,10.4,20.3,20.5,30.5,30.7c3.7,3.7,5.7,3.8,9.8,0.8
		c3.6-2.7,7.9-2.5,11.2,0.6c1.4,1.3,2.6,2.6,3.9,3.9c2.9,2.8,3.9,6.1,2.4,9.9c-1.1,3-0.3,5.4,2,7.7c8.6,8.5,17.1,17.1,25.7,25.7
		c0.5,0.5,1,1,1.5,1.4c2.4,1.9,5,2.3,7.8,1.2c2.8-1.1,4.4-3.3,4.8-6.3c0.4-3.2-1.2-5.4-3.3-7.5C133.2,131.3,97,95.2,60.9,59
		C60.3,58.5,59.8,58,59.2,57.5z"/>
	<path id="XMLID_91_" class="st1" d="M59.5,189.1c-4.4-0.2-9.2-3.2-11.9-9c-2.6-5.7-1.8-11.3,2.2-16.2c1.2-1.4,2.5-2.7,3.8-4
		c8.4-8.5,16.9-16.9,25.4-25.4c0.7-0.7,1.3-1.3,2.1-1.8c1.7-1,3.3-0.8,4.6,0.6c1.3,1.4,1.5,3,0.4,4.7c-0.5,0.8-1.2,1.4-1.8,2.1
		c-9.2,9.2-18.3,18.3-27.5,27.5c-2.4,2.4-3.6,5-2.7,8.3c1.5,5.4,7.8,7.5,12.2,4.1c0.7-0.6,1.4-1.2,2-1.9
		c9.4-9.4,18.9-18.9,28.3-28.3c0.7-0.7,1.5-1.4,2.3-1.9c1.6-0.8,3-0.4,4.2,0.8c1.2,1.2,1.5,2.7,0.6,4.3c-0.4,0.7-1,1.4-1.6,2
		c-9.7,9.7-19.4,19.4-29.1,29.1C70,187.3,66.2,189.3,59.5,189.1z"/>
	<path id="XMLID_90_" class="st1" d="M151.7,95.6c5.3,1.1,9.6-1.5,13.6-5.6c7.1-7.3,14.4-14.4,21.6-21.6c0.7-0.7,1.3-1.3,2.1-1.8
		c1.6-1,3.2-0.7,4.5,0.5c1.4,1.3,1.7,2.9,0.7,4.6c-0.5,0.8-1.2,1.4-1.8,2.1c-7.5,7.5-15.1,15-22.6,22.6c-4.8,4.9-10.5,7.7-17.4,7
		c-3.5-0.3-6.3,0.5-8.4,3.4c-1,1.3-2.2,2.4-3.4,3.4c-1.8,1.5-4,1.4-5.4-0.1c-1.4-1.4-1.5-3.6,0.1-5.2c2.6-2.8,5.4-5.5,8.2-8.1
		c0.8-0.7,2.1-1,3.2-1.1C148,95.5,149.6,95.6,151.7,95.6z"/>
	<path id="XMLID_89_" class="st1" d="M170.3,45.5c-0.8,1.1-1.5,2.4-2.4,3.4c-7.6,7.7-15.2,15.3-22.9,22.9c-3.4,3.3-5.5,7.1-5,11.9
		c0.6,5.3-1.1,9.4-5.4,12.7c-1.5,1.1-2.6,2.6-4,3.9c-1.8,1.6-3.9,1.5-5.4,0c-1.4-1.5-1.5-3.7,0.1-5.4c1.7-1.9,3.5-3.7,5.4-5.4
		c1.1-1,1.6-2.1,1.5-3.6c-0.1-5.1,0.2-10.1,3.2-14.4c1-1.5,2.1-2.9,3.3-4.2c8-8.1,16.1-16.2,24.2-24.2c2.2-2.2,4.7-2.2,6.2-0.2
		C169.6,43.5,169.8,44.4,170.3,45.5z"/>
	<path id="XMLID_88_" class="st1" d="M152.8,87.1c-3.4,0-5.3-3-4-5.5c0.4-0.7,1-1.4,1.6-2c7.5-7.5,15-15.1,22.6-22.6
		c0.6-0.6,1.4-1.6,2.2-1.6c1.4-0.1,3.3,0,4.1,0.9c0.8,0.9,0.7,2.7,0.7,4.2c0,0.6-0.8,1.3-1.4,1.8c-7.6,7.7-15.2,15.3-22.9,22.9
		C154.7,86.1,153.4,86.7,152.8,87.1z"/>
</g>
</svg>
